<svg width="139" height="103" viewBox="0 0 139 103" fill="none" xmlns="http://www.w3.org/2000/svg">
<path d="M26.9303 64.9971H8.41162V73.7086H26.9303V64.9971Z" stroke="#411D87" stroke-width="1.67016" stroke-linecap="round" stroke-linejoin="round"/>
<path d="M39.617 38.0547H86.5285C89.8087 38.0547 92.4609 40.7136 92.4609 43.9871V94.7199C92.4609 98.0001 89.802 100.652 86.5285 100.652H7.79716C4.51697 100.652 1.86475 97.9934 1.86475 94.7199V43.9871C1.86475 40.7069 4.52365 38.0547 7.79716 38.0547H26.1488" stroke="#411D87" stroke-width="3.34032" stroke-linecap="round" stroke-linejoin="round"/>
<path d="M91.1055 80.5772C110.838 80.5772 126.834 64.5812 126.834 44.8492C126.834 25.1171 110.838 9.12109 91.1055 9.12109C71.3734 9.12109 55.3774 25.1171 55.3774 44.8492C55.3774 64.5812 71.3734 80.5772 91.1055 80.5772Z" fill="#85FFC4"/>
<path d="M92.3218 62.1523V69.5144V62.1523Z" fill="black"/>
<path d="M92.3218 62.1523V69.5144" stroke="#411D87" stroke-width="3.34032" stroke-linecap="round" stroke-linejoin="round"/>
<path d="M92.3218 20.1846V27.5466V20.1846Z" fill="black"/>
<path d="M92.3218 20.1846V27.5466" stroke="#411D87" stroke-width="3.34032" stroke-linecap="round" stroke-linejoin="round"/>
<path d="M84.3052 20.1846V69.5144V20.1846Z" fill="black"/>
<path d="M84.3052 20.1846V69.5144" stroke="#411D87" stroke-width="3.34032" stroke-linecap="round" stroke-linejoin="round"/>
<path d="M77.6245 27.5469H94.6401C99.3967 27.5469 103.252 31.4016 103.252 36.1582V36.2451C103.252 41.0017 99.3967 44.8564 94.6401 44.8564H84.3051" stroke="#411D87" stroke-width="3.34032" stroke-linecap="round" stroke-linejoin="round"/>
<path d="M84.3051 44.8496H94.6401C99.3967 44.8496 103.252 48.7043 103.252 53.461V53.5478C103.252 58.3044 99.3967 62.1591 94.6401 62.1591H77.6245" stroke="#411D87" stroke-width="3.34032" stroke-linecap="round" stroke-linejoin="round"/>
<path d="M113.58 81.3393C107.046 85.3744 99.3499 87.6992 91.1059 87.6992C67.4431 87.6992 48.2563 68.5124 48.2563 44.8496C48.2563 21.1868 67.4364 2 91.1059 2C98.9156 2 106.231 4.09104 112.538 7.73867" stroke="#411D87" stroke-width="3.34032" stroke-linecap="round" stroke-linejoin="round"/>
<path d="M128.044 23.124C131.798 29.4974 133.95 36.9195 133.95 44.8495C133.95 54.3293 130.87 63.0876 125.659 70.1891" stroke="#411D87" stroke-width="3.34032" stroke-linecap="round" stroke-linejoin="round"/>
<path d="M109.424 65.833L115.703 89.2754L120.507 84.472L129.111 93.0767L136.667 85.5275L128.056 76.9162L132.859 72.1128L109.424 65.833Z" stroke="#411D87" stroke-width="3.34032" stroke-linecap="round" stroke-linejoin="round"/>
</svg>
