<svg width="105" height="104" viewBox="0 0 105 104" fill="none" xmlns="http://www.w3.org/2000/svg">
<path d="M52.5607 81.157C68.39 81.157 81.2221 68.3248 81.2221 52.4955C81.2221 36.6662 68.39 23.834 52.5607 23.834C36.7314 23.834 23.8992 36.6662 23.8992 52.4955C23.8992 68.3248 36.7314 81.157 52.5607 81.157Z" fill="#85FFC4"/>
<path d="M89.2302 36.3203H103.333H89.2302Z" fill="black"/>
<path d="M89.2302 36.3203H103.333" stroke="#BFA3FF" stroke-width="3.33333" stroke-linecap="round" stroke-linejoin="round"/>
<path d="M96.4919 52.4893H103.332H96.4919Z" fill="black"/>
<path d="M96.4919 52.4893H103.332" stroke="#BFA3FF" stroke-width="3.33333" stroke-linecap="round" stroke-linejoin="round"/>
<path d="M89.2302 68.665H103.333H89.2302Z" fill="black"/>
<path d="M89.2302 68.665H103.333" stroke="#BFA3FF" stroke-width="3.33333" stroke-linecap="round" stroke-linejoin="round"/>
<path d="M15.8837 36.3203H1.78784H15.8837Z" fill="black"/>
<path d="M15.8837 36.3203H1.78784" stroke="#BFA3FF" stroke-width="3.33333" stroke-linecap="round" stroke-linejoin="round"/>
<path d="M8.83575 52.4961H1.78784H8.83575Z" fill="black"/>
<path d="M8.83575 52.4961H1.78784" stroke="#BFA3FF" stroke-width="3.33333" stroke-linecap="round" stroke-linejoin="round"/>
<path d="M15.8837 68.665H1.78784H15.8837Z" fill="black"/>
<path d="M15.8837 68.665H1.78784" stroke="#BFA3FF" stroke-width="3.33333" stroke-linecap="round" stroke-linejoin="round"/>
<path d="M68.7361 16.0959V2V16.0959Z" fill="black"/>
<path d="M68.7361 16.0959V2" stroke="#BFA3FF" stroke-width="3.33333" stroke-linecap="round" stroke-linejoin="round"/>
<path d="M52.5603 9.0479V2V9.0479Z" fill="black"/>
<path d="M52.5603 9.0479V2" stroke="#BFA3FF" stroke-width="3.33333" stroke-linecap="round" stroke-linejoin="round"/>
<path d="M36.3845 16.0959V2V16.0959Z" fill="black"/>
<path d="M36.3845 16.0959V2" stroke="#BFA3FF" stroke-width="3.33333" stroke-linecap="round" stroke-linejoin="round"/>
<path d="M36.3845 88.0947V102.19V88.0947Z" fill="black"/>
<path d="M36.3845 88.0947V102.19" stroke="#BFA3FF" stroke-width="3.33333" stroke-linecap="round" stroke-linejoin="round"/>
<path d="M52.5603 95.1426V102.19V95.1426Z" fill="black"/>
<path d="M52.5603 95.1426V102.19" stroke="#BFA3FF" stroke-width="3.33333" stroke-linecap="round" stroke-linejoin="round"/>
<path d="M68.7361 88.0947V102.19V88.0947Z" fill="black"/>
<path d="M68.7361 88.0947V102.19" stroke="#BFA3FF" stroke-width="3.33333" stroke-linecap="round" stroke-linejoin="round"/>
<path d="M87.9658 36.3207V87.9017H17.155V17.084H87.9658" stroke="#BFA3FF" stroke-width="3.33333" stroke-linecap="round" stroke-linejoin="round"/>
<path d="M54.116 66.751V72.8177V66.751Z" fill="black"/>
<path d="M54.116 66.751V72.8177" stroke="#BFA3FF" stroke-width="3.33333" stroke-linecap="round" stroke-linejoin="round"/>
<path d="M54.116 32.168V38.2347V32.168Z" fill="black"/>
<path d="M54.116 32.168V38.2347" stroke="#BFA3FF" stroke-width="3.33333" stroke-linecap="round" stroke-linejoin="round"/>
<path d="M47.5095 32.168V72.8178V32.168Z" fill="black"/>
<path d="M47.5095 32.168V72.8178" stroke="#BFA3FF" stroke-width="3.33333" stroke-linecap="round" stroke-linejoin="round"/>
<path d="M42.0027 38.2354H56.0225C59.9403 38.2354 63.1188 41.4139 63.1188 45.3317V45.4008C63.1188 49.3186 59.9403 52.497 56.0225 52.497H47.5028" stroke="#BFA3FF" stroke-width="3.33333" stroke-linecap="round" stroke-linejoin="round"/>
<path d="M47.5096 52.4961H56.0293C59.9471 52.4961 63.1256 55.6746 63.1256 59.5924V59.6615C63.1256 63.5793 59.9471 66.7578 56.0293 66.7578H42.0095" stroke="#BFA3FF" stroke-width="3.33333" stroke-linecap="round" stroke-linejoin="round"/>
</svg>
