<svg width="105" height="104" viewBox="0 0 105 104" fill="none" xmlns="http://www.w3.org/2000/svg">
<path d="M52.5604 81.157C68.3897 81.157 81.2218 68.3248 81.2218 52.4955C81.2218 36.6662 68.3897 23.834 52.5604 23.834C36.7311 23.834 23.8989 36.6662 23.8989 52.4955C23.8989 68.3248 36.7311 81.157 52.5604 81.157Z" fill="#85FFC4"/>
<path d="M89.23 36.3203H103.333H89.23Z" fill="black"/>
<path d="M89.23 36.3203H103.333" stroke="#411D87" stroke-width="3.33333" stroke-linecap="round" stroke-linejoin="round"/>
<path d="M96.4917 52.4893H103.332H96.4917Z" fill="black"/>
<path d="M96.4917 52.4893H103.332" stroke="#411D87" stroke-width="3.33333" stroke-linecap="round" stroke-linejoin="round"/>
<path d="M89.23 68.665H103.333H89.23Z" fill="black"/>
<path d="M89.23 68.665H103.333" stroke="#411D87" stroke-width="3.33333" stroke-linecap="round" stroke-linejoin="round"/>
<path d="M15.8835 36.3203H1.7876H15.8835Z" fill="black"/>
<path d="M15.8835 36.3203H1.7876" stroke="#411D87" stroke-width="3.33333" stroke-linecap="round" stroke-linejoin="round"/>
<path d="M8.83551 52.4961H1.7876H8.83551Z" fill="black"/>
<path d="M8.83551 52.4961H1.7876" stroke="#411D87" stroke-width="3.33333" stroke-linecap="round" stroke-linejoin="round"/>
<path d="M15.8835 68.665H1.7876H15.8835Z" fill="black"/>
<path d="M15.8835 68.665H1.7876" stroke="#411D87" stroke-width="3.33333" stroke-linecap="round" stroke-linejoin="round"/>
<path d="M68.7358 16.0959V2V16.0959Z" fill="black"/>
<path d="M68.7358 16.0959V2" stroke="#411D87" stroke-width="3.33333" stroke-linecap="round" stroke-linejoin="round"/>
<path d="M52.5601 9.0479V2V9.0479Z" fill="black"/>
<path d="M52.5601 9.0479V2" stroke="#411D87" stroke-width="3.33333" stroke-linecap="round" stroke-linejoin="round"/>
<path d="M36.3843 16.0959V2V16.0959Z" fill="black"/>
<path d="M36.3843 16.0959V2" stroke="#411D87" stroke-width="3.33333" stroke-linecap="round" stroke-linejoin="round"/>
<path d="M36.3843 88.0947V102.19V88.0947Z" fill="black"/>
<path d="M36.3843 88.0947V102.19" stroke="#411D87" stroke-width="3.33333" stroke-linecap="round" stroke-linejoin="round"/>
<path d="M52.5601 95.1426V102.19V95.1426Z" fill="black"/>
<path d="M52.5601 95.1426V102.19" stroke="#411D87" stroke-width="3.33333" stroke-linecap="round" stroke-linejoin="round"/>
<path d="M68.7358 88.0947V102.19V88.0947Z" fill="black"/>
<path d="M68.7358 88.0947V102.19" stroke="#411D87" stroke-width="3.33333" stroke-linecap="round" stroke-linejoin="round"/>
<path d="M87.9656 36.3207V87.9017H17.1548V17.084H87.9656" stroke="#411D87" stroke-width="3.33333" stroke-linecap="round" stroke-linejoin="round"/>
<path d="M54.1157 66.751V72.8177V66.751Z" fill="black"/>
<path d="M54.1157 66.751V72.8177" stroke="#411D87" stroke-width="3.33333" stroke-linecap="round" stroke-linejoin="round"/>
<path d="M54.1157 32.168V38.2347V32.168Z" fill="black"/>
<path d="M54.1157 32.168V38.2347" stroke="#411D87" stroke-width="3.33333" stroke-linecap="round" stroke-linejoin="round"/>
<path d="M47.5093 32.168V72.8178V32.168Z" fill="black"/>
<path d="M47.5093 32.168V72.8178" stroke="#411D87" stroke-width="3.33333" stroke-linecap="round" stroke-linejoin="round"/>
<path d="M42.0024 38.2354H56.0222C59.94 38.2354 63.1185 41.4139 63.1185 45.3317V45.4008C63.1185 49.3186 59.94 52.497 56.0222 52.497H47.5025" stroke="#411D87" stroke-width="3.33333" stroke-linecap="round" stroke-linejoin="round"/>
<path d="M47.5094 52.4961H56.0291C59.9469 52.4961 63.1254 55.6746 63.1254 59.5924V59.6615C63.1254 63.5793 59.9469 66.7578 56.0291 66.7578H42.0093" stroke="#411D87" stroke-width="3.33333" stroke-linecap="round" stroke-linejoin="round"/>
</svg>
