<svg width="89" height="101" viewBox="0 0 89 101" fill="none" xmlns="http://www.w3.org/2000/svg">
<path d="M44.1649 7.55371C29.8614 7.55371 18.2689 19.1461 18.2689 33.4496C18.2689 35.9471 18.6228 38.3644 19.2839 40.6481H69.0459C69.707 38.3644 70.0609 35.9471 70.0609 33.4496C70.0609 19.1461 58.4685 7.55371 44.1649 7.55371Z" fill="#85FFC4"/>
<path d="M45.0873 15.3506V20.7528V15.3506Z" fill="black"/>
<path d="M45.0873 15.3506V20.7528" stroke="#BFA3FF" stroke-width="2.56076" stroke-linecap="round" stroke-linejoin="round"/>
<path d="M39.2074 15.3486V40.2229V15.3486Z" fill="black"/>
<path d="M39.2074 15.3486V40.2229" stroke="#BFA3FF" stroke-width="2.56076" stroke-linecap="round" stroke-linejoin="round"/>
<path d="M34.308 20.7461H46.7952C50.2876 20.7461 53.1123 23.5774 53.1123 27.0632V27.1299C53.1123 30.6223 50.281 33.447 46.7952 33.447H39.2094" stroke="#BFA3FF" stroke-width="2.56076" stroke-linecap="round" stroke-linejoin="round"/>
<path d="M39.2064 33.4512H46.7923C50.2847 33.4512 53.1093 36.2825 53.1093 39.7682V39.835" stroke="#BFA3FF" stroke-width="2.56076" stroke-linecap="round" stroke-linejoin="round"/>
<path d="M13.4712 40.2229C12.9904 38.0393 12.7367 35.7756 12.7367 33.4451C12.7434 16.0832 26.8199 2 44.1885 2C49.9179 2 55.2934 3.53586 59.9211 6.2136" stroke="#BFA3FF" stroke-width="2.56076" stroke-linecap="round" stroke-linejoin="round"/>
<path d="M71.2992 17.5059C74.0571 22.1802 75.633 27.6292 75.633 33.4521C75.633 35.6223 75.4126 37.7458 74.9919 39.7892" fill="black"/>
<path d="M71.2992 17.5059C74.0571 22.1802 75.633 27.6292 75.633 33.4521C75.633 35.6223 75.4126 37.7458 74.9919 39.7892" stroke="#BFA3FF" stroke-width="2.56076" stroke-linecap="round" stroke-linejoin="round"/>
<path d="M78.716 40.2246H9.6021C5.03272 40.2246 1.32849 43.9288 1.32849 48.4982V90.6075C1.32849 95.1769 5.03272 98.8811 9.6021 98.8811H78.716C83.2854 98.8811 86.9896 95.1769 86.9896 90.6075V48.4982C86.9896 43.9288 83.2854 40.2246 78.716 40.2246Z" stroke="#BFA3FF" stroke-width="2.56076" stroke-linecap="round" stroke-linejoin="round"/>
<path d="M55.9821 60.8496H86.9999V78.2649H55.9821C52.67 78.2649 49.9789 75.5738 49.9789 72.2617V66.8528C49.9789 63.5407 52.67 60.8496 55.9821 60.8496Z" stroke="#BFA3FF" stroke-width="2.56076" stroke-linecap="round" stroke-linejoin="round"/>
<path d="M63.0121 69.5536C63.0121 71.8509 61.1491 73.7139 58.852 73.7139C56.5548 73.7139 54.6918 71.8509 54.6918 69.5536C54.6918 67.2565 56.5548 65.3936 58.852 65.3936C61.1491 65.3936 63.0121 67.2565 63.0121 69.5536Z" fill="#85FFC4"/>
</svg>
