<svg width="89" height="101" viewBox="0 0 89 101" fill="none" xmlns="http://www.w3.org/2000/svg">
<path d="M44.1646 7.55371C29.8611 7.55371 18.2686 19.1461 18.2686 33.4496C18.2686 35.9471 18.6225 38.3644 19.2836 40.6481H69.0456C69.7067 38.3644 70.0606 35.9471 70.0606 33.4496C70.0606 19.1461 58.4682 7.55371 44.1646 7.55371Z" fill="#85FFC4"/>
<path d="M45.0869 15.3506V20.7528V15.3506Z" fill="black"/>
<path d="M45.0869 15.3506V20.7528" stroke="#411D87" stroke-width="2.56076" stroke-linecap="round" stroke-linejoin="round"/>
<path d="M39.207 15.3486V40.2229V15.3486Z" fill="black"/>
<path d="M39.207 15.3486V40.2229" stroke="#411D87" stroke-width="2.56076" stroke-linecap="round" stroke-linejoin="round"/>
<path d="M34.3076 20.7461H46.7948C50.2872 20.7461 53.1119 23.5774 53.1119 27.0632V27.1299C53.1119 30.6223 50.2806 33.447 46.7948 33.447H39.209" stroke="#411D87" stroke-width="2.56076" stroke-linecap="round" stroke-linejoin="round"/>
<path d="M39.2061 33.4512H46.792C50.2844 33.4512 53.109 36.2825 53.109 39.7682V39.835" stroke="#411D87" stroke-width="2.56076" stroke-linecap="round" stroke-linejoin="round"/>
<path d="M13.4708 40.2229C12.99 38.0393 12.7363 35.7756 12.7363 33.4451C12.743 16.0832 26.8195 2 44.1881 2C49.9175 2 55.293 3.53586 59.9207 6.2136" stroke="#411D87" stroke-width="2.56076" stroke-linecap="round" stroke-linejoin="round"/>
<path d="M71.2988 17.5059C74.0567 22.1802 75.6326 27.6292 75.6326 33.4521C75.6326 35.6223 75.4122 37.7458 74.9915 39.7892" fill="black"/>
<path d="M71.2988 17.5059C74.0567 22.1802 75.6326 27.6292 75.6326 33.4521C75.6326 35.6223 75.4122 37.7458 74.9915 39.7892" stroke="#411D87" stroke-width="2.56076" stroke-linecap="round" stroke-linejoin="round"/>
<path d="M78.7156 40.2246H9.60174C5.03236 40.2246 1.32812 43.9288 1.32812 48.4982V90.6075C1.32812 95.1769 5.03236 98.8811 9.60174 98.8811H78.7156C83.285 98.8811 86.9892 95.1769 86.9892 90.6075V48.4982C86.9892 43.9288 83.285 40.2246 78.7156 40.2246Z" stroke="#411D87" stroke-width="2.56076" stroke-linecap="round" stroke-linejoin="round"/>
<path d="M55.9817 60.8496H86.9995V78.2649H55.9817C52.6696 78.2649 49.9785 75.5738 49.9785 72.2617V66.8528C49.9785 63.5407 52.6696 60.8496 55.9817 60.8496Z" stroke="#411D87" stroke-width="2.56076" stroke-linecap="round" stroke-linejoin="round"/>
<path d="M63.0117 69.5536C63.0117 71.8509 61.1487 73.7139 58.8516 73.7139C56.5544 73.7139 54.6914 71.8509 54.6914 69.5536C54.6914 67.2565 56.5544 65.3936 58.8516 65.3936C61.1487 65.3936 63.0117 67.2565 63.0117 69.5536Z" fill="#85FFC4"/>
</svg>
