<svg width="54" height="48" viewBox="0 0 54 48" fill="none" xmlns="http://www.w3.org/2000/svg">
<path d="M49.7345 35.1455C47.1195 33.6319 43.9323 34.038 41.7849 35.9331L38.5238 34.0441V24.7101C38.5238 23.7441 38.007 22.8458 37.1702 22.3659L28.8022 17.5481V13.4195C31.5218 12.4966 33.4784 9.92467 33.4784 6.89127C33.4784 3.08261 30.3958 0 26.5872 0C22.7785 0 19.6959 3.08261 19.6959 6.89127C19.6959 9.92467 21.6525 12.4966 24.3721 13.4195V17.5481L16.0041 22.3659C15.1673 22.8458 14.6505 23.7441 14.6505 24.7101V34.038L11.3894 35.9269C9.24208 34.0318 6.04871 33.6257 3.43987 35.1393C0.148055 37.0468 -0.971777 41.2554 0.917171 44.5472C2.81227 47.839 7.00241 48.9711 10.2819 47.0699C12.8969 45.5562 14.1398 42.5782 13.5799 39.7602L16.5764 38.0189L25.2274 43.0028C25.6458 43.2427 26.1134 43.3658 26.581 43.3658C27.0486 43.3658 27.5163 43.2427 27.9347 43.0028L36.5795 38.0251L39.576 39.7663C39.0161 42.5782 40.2651 45.5624 42.874 47.076C46.1535 48.9773 50.3498 47.8513 52.2387 44.5533C54.1338 41.2554 53.014 37.0468 49.7345 35.1455ZM8.32529 43.6611C7.99109 43.8547 7.62191 43.9803 7.239 44.0306C6.85608 44.0809 6.46699 44.055 6.09413 43.9543C5.72127 43.8537 5.372 43.6803 5.06642 43.4441C4.76084 43.208 4.50498 42.9137 4.31358 42.5782C3.5014 41.1692 3.98133 39.3603 5.39035 38.5481C5.72455 38.3545 6.09373 38.229 6.47664 38.1786C6.85956 38.1283 7.24864 38.1542 7.6215 38.2549C7.99436 38.3555 8.34364 38.5289 8.64922 38.7651C8.9548 39.0013 9.21065 39.2955 9.40205 39.631C10.2142 41.04 9.73431 42.849 8.32529 43.6611ZM23.6276 6.89127C23.6434 6.11842 23.9615 5.38255 24.5136 4.84155C25.0658 4.30055 25.808 3.99755 26.581 3.99755C27.354 3.99755 28.0962 4.30055 28.6484 4.84155C29.2005 5.38255 29.5186 6.11842 29.5344 6.89127C29.5186 7.66413 29.2005 8.4 28.6484 8.941C28.0962 9.482 27.354 9.785 26.581 9.785C25.808 9.785 25.0658 9.482 24.5136 8.941C23.9615 8.4 23.6434 7.66413 23.6276 6.89127ZM34.0876 34.3456L26.581 38.6711L19.0744 34.3456V25.7069L26.581 21.3814L34.0876 25.7069V34.3456ZM48.8484 42.5844C48.0363 43.9934 46.2396 44.4795 44.8367 43.6673C43.4339 42.8551 42.9478 41.0462 43.76 39.6371C44.5722 38.2281 46.3688 37.742 47.7717 38.5542C49.1807 39.3664 49.6606 41.1692 48.8484 42.5844Z" fill="#3C148A"/>
</svg>
