<svg width="55" height="48" viewBox="0 0 55 48" fill="none" xmlns="http://www.w3.org/2000/svg">
<path d="M25.4085 3L7.13452 9V27C7.13452 36.9422 15.315 45 25.4085 45C35.502 45 43.6825 36.9422 43.6825 27V9L25.4085 3ZM40.2561 27C40.2561 35.0766 33.608 41.625 25.4085 41.625C17.209 41.625 10.5609 35.0766 10.5609 27V11.5312L25.4085 6.375L40.2561 11.5312V27Z" fill="#BFA3FF"/>
<path d="M18.8877 21.8502C18.7307 21.6908 18.5441 21.5642 18.3386 21.4779C18.1331 21.3916 17.9127 21.3472 17.6901 21.3472C17.4676 21.3472 17.2472 21.3916 17.0417 21.4779C16.8362 21.5642 16.6496 21.6908 16.4926 21.8502C16.3348 22.0089 16.2097 22.1975 16.1243 22.4052C16.0389 22.613 15.9949 22.8357 15.9949 23.0606C15.9949 23.2856 16.0389 23.5083 16.1243 23.7161C16.2097 23.9238 16.3348 24.1124 16.4926 24.2711L22.5816 30.4257L22.6804 30.5256C22.8289 30.676 23.0053 30.7953 23.1995 30.8767C23.3937 30.9581 23.6019 31 23.8121 31C24.0223 31 24.2305 30.9581 24.4247 30.8767C24.6189 30.7953 24.7953 30.676 24.9438 30.5256L35.4608 19.8954C35.6096 19.7452 35.7276 19.5669 35.8082 19.3707C35.8887 19.1744 35.9302 18.964 35.9302 18.7515C35.9302 18.539 35.8887 18.3286 35.8082 18.1323C35.7276 17.936 35.6096 17.7577 35.4608 17.6076L35.329 17.4744C35.1805 17.324 35.0041 17.2047 34.8099 17.1233C34.6157 17.0419 34.4076 17 34.1973 17C33.9871 17 33.7789 17.0419 33.5847 17.1233C33.3905 17.2047 33.2141 17.324 33.0656 17.4744L23.8098 26.8252L18.8877 21.8502Z" fill="#BFA3FF"/>
</svg>
