<svg width="39" height="42" viewBox="0 0 39 42" fill="none" xmlns="http://www.w3.org/2000/svg">
<path d="M19.4077 0L1.13379 6V24C1.13379 33.9422 9.31422 42 19.4077 42C29.5012 42 37.6817 33.9422 37.6817 24V6L19.4077 0ZM34.2553 24C34.2553 32.0766 27.6072 38.625 19.4077 38.625C11.2082 38.625 4.56016 32.0766 4.56016 24V8.5312L19.4077 3.375L34.2553 8.5312V24Z" fill="#411D87"/>
<path d="M12.8869 18.8502C12.7299 18.6908 12.5433 18.5642 12.3378 18.4779C12.1323 18.3916 11.9119 18.3472 11.6893 18.3472C11.4668 18.3472 11.2464 18.3916 11.0409 18.4779C10.8354 18.5642 10.6488 18.6908 10.4918 18.8502C10.334 19.0089 10.2089 19.1975 10.1235 19.4052C10.0381 19.613 9.99414 19.8357 9.99414 20.0606C9.99414 20.2856 10.0381 20.5083 10.1235 20.7161C10.2089 20.9238 10.334 21.1124 10.4918 21.2711L16.5808 27.4257L16.6796 27.5256C16.8281 27.676 17.0045 27.7953 17.1987 27.8767C17.3929 27.9581 17.6011 28 17.8113 28C18.0215 28 18.2297 27.9581 18.4239 27.8767C18.6181 27.7953 18.7945 27.676 18.943 27.5256L29.46 16.8954C29.6088 16.7452 29.7268 16.5669 29.8074 16.3707C29.8879 16.1744 29.9294 15.964 29.9294 15.7515C29.9294 15.539 29.8879 15.3286 29.8074 15.1323C29.7268 14.936 29.6088 14.7577 29.46 14.6076L29.3282 14.4744C29.1797 14.324 29.0033 14.2047 28.8091 14.1233C28.6149 14.0419 28.4068 14 28.1965 14C27.9863 14 27.7781 14.0419 27.5839 14.1233C27.3897 14.2047 27.2133 14.324 27.0648 14.4744L17.809 23.8252L12.8869 18.8502Z" fill="#411D87"/>
</svg>
