<svg width="41" height="34" viewBox="0 0 41 34" fill="none" xmlns="http://www.w3.org/2000/svg">
<path d="M40.4339 30.125H4.71665V0.875C4.71665 0.66875 4.52975 0.5 4.3013 0.5H1.39408C1.16565 0.5 0.97876 0.66875 0.97876 0.875V33.125C0.97876 33.3313 1.16565 33.5 1.39408 33.5H40.4339C40.6623 33.5 40.8492 33.3313 40.8492 33.125V30.5C40.8492 30.2937 40.6623 30.125 40.4339 30.125ZM9.28515 26.375H12.1924C12.4208 26.375 12.6077 26.2063 12.6077 26V19.25C12.6077 19.0437 12.4208 18.875 12.1924 18.875H9.28515C9.05665 18.875 8.86975 19.0437 8.86975 19.25V26C8.86975 26.2063 9.05665 26.375 9.28515 26.375ZM17.1761 26.375H20.0833C20.3117 26.375 20.4986 26.2063 20.4986 26V11C20.4986 10.7937 20.3117 10.625 20.0833 10.625H17.1761C16.9477 10.625 16.7609 10.7937 16.7609 11V26C16.7609 26.2063 16.9477 26.375 17.1761 26.375ZM25.0672 26.375H27.9744C28.2029 26.375 28.3897 26.2063 28.3897 26V14.6562C28.3897 14.45 28.2029 14.2812 27.9744 14.2812H25.0672C24.8388 14.2812 24.6518 14.45 24.6518 14.6562V26C24.6518 26.2063 24.8388 26.375 25.0672 26.375ZM32.9582 26.375H35.8654C36.0938 26.375 36.2807 26.2063 36.2807 26V7.25C36.2807 7.0437 36.0938 6.875 35.8654 6.875H32.9582C32.7298 6.875 32.5428 7.0437 32.5428 7.25V26C32.5428 26.2063 32.7298 26.375 32.9582 26.375Z" fill="#BFA3FF"/>
</svg>
