<svg width="41" height="34" viewBox="0 0 41 34" fill="none" xmlns="http://www.w3.org/2000/svg">
<path d="M40.4337 30.125H4.71641V0.875C4.71641 0.66875 4.52951 0.5 4.30106 0.5H1.39384C1.16541 0.5 0.978516 0.66875 0.978516 0.875V33.125C0.978516 33.3313 1.16541 33.5 1.39384 33.5H40.4337C40.6621 33.5 40.849 33.3313 40.849 33.125V30.5C40.849 30.2937 40.6621 30.125 40.4337 30.125ZM9.2849 26.375H12.1921C12.4205 26.375 12.6074 26.2063 12.6074 26V19.25C12.6074 19.0437 12.4205 18.875 12.1921 18.875H9.2849C9.0564 18.875 8.86951 19.0437 8.86951 19.25V26C8.86951 26.2063 9.0564 26.375 9.2849 26.375ZM17.1759 26.375H20.0831C20.3115 26.375 20.4984 26.2063 20.4984 26V11C20.4984 10.7937 20.3115 10.625 20.0831 10.625H17.1759C16.9475 10.625 16.7606 10.7937 16.7606 11V26C16.7606 26.2063 16.9475 26.375 17.1759 26.375ZM25.0669 26.375H27.9741C28.2026 26.375 28.3894 26.2063 28.3894 26V14.6562C28.3894 14.45 28.2026 14.2812 27.9741 14.2812H25.0669C24.8385 14.2812 24.6516 14.45 24.6516 14.6562V26C24.6516 26.2063 24.8385 26.375 25.0669 26.375ZM32.9579 26.375H35.8652C36.0936 26.375 36.2805 26.2063 36.2805 26V7.25C36.2805 7.0437 36.0936 6.875 35.8652 6.875H32.9579C32.7295 6.875 32.5426 7.0437 32.5426 7.25V26C32.5426 26.2063 32.7295 26.375 32.9579 26.375Z" fill="#411D87"/>
</svg>
