<svg width="41" height="40" viewBox="0 0 41 40" fill="none" xmlns="http://www.w3.org/2000/svg">
<path d="M21.5183 8.8837H19.2188C19.0084 8.8837 18.8363 9.0512 18.8363 9.2558V22.0605C18.8363 22.1814 18.8937 22.293 18.9941 22.3628L26.8965 27.9767C27.0686 28.0977 27.3077 28.0651 27.432 27.8977L28.7992 26.0837C28.9283 25.9116 28.8901 25.6791 28.718 25.5628L21.9007 20.7674V9.2558C21.9007 9.0512 21.7286 8.8837 21.5183 8.8837ZM32.0262 12.3814L39.5223 14.1628C39.7613 14.2186 39.9956 14.0419 39.9956 13.8047L40.0338 6.293C40.0338 5.9814 39.6657 5.80466 39.4171 6L31.8828 11.7256C31.8258 11.7684 31.7825 11.8261 31.7577 11.8918C31.7329 11.9576 31.7277 12.0288 31.7427 12.0973C31.7577 12.1658 31.7922 12.2288 31.8424 12.2791C31.8925 12.3293 31.9562 12.3648 32.0262 12.3814ZM40.0434 26.386L37.3327 25.4791C37.2382 25.4476 37.1348 25.4533 37.0446 25.495C36.9543 25.5367 36.8844 25.6111 36.8499 25.7023C36.759 25.9395 36.6634 26.1721 36.563 26.4047C35.7121 28.3628 34.493 30.1256 32.9345 31.6372C31.3933 33.1413 29.5668 34.3402 27.5563 35.1674C25.4735 36.0242 23.2346 36.4639 20.9733 36.4605C18.6881 36.4605 16.4747 36.0279 14.3903 35.1674C12.3797 34.3402 10.5532 33.1413 9.012 31.6372C7.4583 30.1256 6.2393 28.3628 5.38352 26.4047C4.50778 24.3771 4.05911 22.1993 4.06406 20C4.06406 17.7767 4.50866 15.6186 5.39308 13.5907C6.244 11.6326 7.4631 9.86979 9.0216 8.3581C10.5628 6.854 12.3893 5.65515 14.3999 4.82791C16.4747 3.96745 18.6929 3.53489 20.9781 3.53489C23.2632 3.53489 25.4767 3.96745 27.561 4.82791C29.5716 5.65515 31.3981 6.854 32.9393 8.3581C33.4269 8.8372 33.8859 9.3349 34.3066 9.8605L37.1654 7.68369C33.403 3.00465 27.5467 -0.0046546 20.9685 5.40436e-06C9.514 0.0046554 0.316009 9.0558 0.430749 20.2047C0.545489 31.1581 9.7005 40 20.9781 40C29.8462 40 37.3997 34.5302 40.2776 26.8698C40.3493 26.6744 40.2442 26.4558 40.0434 26.386Z" fill="#411D87"/>
</svg>
