<svg width="34" height="38" viewBox="0 0 34 38" fill="none" xmlns="http://www.w3.org/2000/svg">
<path d="M32.0645 16.72H28.8552V6.08C28.8552 2.72175 26.1509 0 22.8142 0H11.1098C7.77315 0 5.06884 2.72175 5.06884 6.08V16.72H1.85964C1.02425 16.72 0.349365 17.3992 0.349365 18.24V36.48C0.349365 37.3207 1.02425 38 1.85964 38H32.0645C32.8998 38 33.5747 37.3207 33.5747 36.48V18.24C33.5747 17.3992 32.8998 16.72 32.0645 16.72ZM8.46694 6.08C8.46694 4.61225 9.65155 3.42 11.1098 3.42H22.8142C24.2725 3.42 25.4571 4.61225 25.4571 6.08V16.72H8.46694V6.08ZM30.1767 34.58H3.74745V20.14H30.1767V34.58ZM15.6405 27.9775V30.495C15.6405 30.704 15.8104 30.875 16.0181 30.875H17.9059C18.1136 30.875 18.2835 30.704 18.2835 30.495V27.9775C18.6731 27.696 18.9638 27.2973 19.114 26.8389C19.2641 26.3805 19.2658 25.8859 19.1189 25.4264C18.972 24.967 18.684 24.5662 18.2964 24.282C17.9088 23.9977 17.4416 23.8446 16.962 23.8446C16.4824 23.8446 16.0152 23.9977 15.6276 24.282C15.24 24.5662 14.952 24.967 14.8051 25.4264C14.6582 25.8859 14.6599 26.3805 14.81 26.8389C14.9602 27.2973 15.251 27.696 15.6405 27.9775Z" fill="#BFA3FF"/>
</svg>
