<svg width="34" height="38" viewBox="0 0 34 38" fill="none" xmlns="http://www.w3.org/2000/svg">
<path d="M32.0643 16.72H28.855V6.08C28.855 2.72175 26.1507 0 22.814 0H11.1096C7.7729 0 5.0686 2.72175 5.0686 6.08V16.72H1.8594C1.02401 16.72 0.349121 17.3992 0.349121 18.24V36.48C0.349121 37.3207 1.02401 38 1.8594 38H32.0643C32.8996 38 33.5745 37.3207 33.5745 36.48V18.24C33.5745 17.3992 32.8996 16.72 32.0643 16.72ZM8.4667 6.08C8.4667 4.61225 9.6513 3.42 11.1096 3.42H22.814C24.2723 3.42 25.4569 4.61225 25.4569 6.08V16.72H8.4667V6.08ZM30.1765 34.58H3.7472V20.14H30.1765V34.58ZM15.6403 27.9775V30.495C15.6403 30.704 15.8102 30.875 16.0179 30.875H17.9057C18.1134 30.875 18.2833 30.704 18.2833 30.495V27.9775C18.6729 27.696 18.9636 27.2973 19.1138 26.8389C19.2639 26.3805 19.2656 25.8859 19.1187 25.4264C18.9718 24.967 18.6838 24.5662 18.2962 24.282C17.9086 23.9977 17.4414 23.8446 16.9618 23.8446C16.4822 23.8446 16.015 23.9977 15.6274 24.282C15.2398 24.5662 14.9518 24.967 14.8049 25.4264C14.658 25.8859 14.6597 26.3805 14.8098 26.8389C14.96 27.2973 15.2508 27.696 15.6403 27.9775Z" fill="#411D87"/>
</svg>
