<svg width="20" height="24" viewBox="0 0 20 24" fill="none" xmlns="http://www.w3.org/2000/svg">
<path d="M16.5513 12.7504C16.5851 16.3824 19.7375 17.5911 19.7724 17.6065C19.7458 17.6917 19.2687 19.3288 18.1116 21.0199C17.1112 22.482 16.0731 23.9386 14.4376 23.9688C12.8306 23.9984 12.3139 23.0158 10.4766 23.0158C8.63992 23.0158 8.0658 23.9386 6.54459 23.9984C4.96596 24.0582 3.76381 22.4175 2.75523 20.9608C0.694231 17.9811 -0.880799 12.5409 1.23407 8.86873C2.28469 7.0451 4.16223 5.8903 6.20013 5.86069C7.7503 5.83112 9.21344 6.9036 10.1611 6.9036C11.1082 6.9036 12.8862 5.61385 14.7555 5.80327C15.538 5.83584 17.7346 6.11936 19.145 8.18392C19.0314 8.25437 16.5241 9.71399 16.5513 12.7504ZM13.5312 3.83196C14.3693 2.81747 14.9334 1.4052 14.7795 0C13.5714 0.0485541 12.1106 0.805021 11.2441 1.81896C10.4675 2.71684 9.78739 4.15397 9.97089 5.53135C11.3174 5.63553 12.693 4.8471 13.5312 3.83196Z" fill="#140D1E"/>
</svg>
