<svg width="22" height="24" viewBox="0 0 22 24" fill="none" xmlns="http://www.w3.org/2000/svg">
<path d="M0.220156 0C0.190156 0.093 0.160156 0.185 0.160156 0.308V23.537C0.160156 23.754 0.221156 23.877 0.344156 24L11.7592 11.907L0.220156 0ZM12.5292 12.708L15.4802 15.753L11.2672 18.153C11.2672 18.153 5.91216 21.197 2.95916 22.892L12.5292 12.708ZM13.3302 11.877L16.4962 15.169C16.9922 14.893 20.8672 12.677 21.4202 12.369C22.0042 12.031 21.9452 11.569 21.4492 11.323C20.9902 11.068 17.1152 8.848 16.5292 8.488L13.3262 11.88L13.3302 11.877ZM12.5272 11.077L15.5112 7.908L11.2522 5.477C11.2522 5.477 4.30916 1.505 1.99916 0.179L12.5292 11.077H12.5272Z" fill="white"/>
</svg>
