<svg width="44" height="47" viewBox="0 0 44 47" fill="none" xmlns="http://www.w3.org/2000/svg">
<g clip-path="url(#clip0_59_4452)">
<path d="M19.9844 26.797C21.597 25.9474 23.2935 25.227 24.951 24.4646L33.1132 20.7001L36.3134 19.2286C36.7256 19.0373 37.2883 18.6701 37.7158 18.5869C37.331 19.6474 36.8951 20.6898 36.4856 21.741C35.8628 23.3856 35.2271 25.0252 34.5787 26.6598L24.4615 26.7544C22.9693 26.7837 21.4769 26.7979 19.9844 26.797Z" fill="#BFA3FF"/>
<path d="M5.87842 8.60605C6.77823 8.48486 7.69147 8.57334 8.59447 8.59238C9.58209 8.61322 10.574 8.59496 11.562 8.59468C12.8389 8.59429 14.1182 8.60935 15.3948 8.58986C16.0958 8.57917 16.8095 8.50508 17.5091 8.55548L20.2586 15.7134L20.9907 17.6152C21.094 17.8855 21.2403 18.1874 21.3065 18.4673C20.8896 18.6065 20.4318 18.6519 20.0016 18.7447L17.3775 19.3299L13.0926 20.2968C12.3899 20.4583 11.2641 20.7999 10.5766 20.7986C10.4225 20.1807 9.99475 19.2373 9.75015 18.6084L8.1817 14.5247L6.57545 10.3535C6.40829 9.92143 6.10197 8.96848 5.87842 8.60605Z" fill="#BFA3FF"/>
<path d="M10.5544 -0.399067L44.0335 -0.399414L39.3958 8.52892L24.2217 8.54304L20.0033 8.54085C19.1834 8.53699 18.3255 8.48278 17.5091 8.55463C16.8095 8.50423 16.0958 8.57831 15.3948 8.58901C14.1182 8.6085 12.8389 8.59344 11.562 8.59383C10.574 8.59411 9.58209 8.61236 8.59447 8.59153C7.69147 8.57249 6.77823 8.48401 5.87842 8.6052C6.58251 7.1968 7.33246 5.80581 8.05872 4.40822C8.891 2.80662 9.70546 1.19365 10.5544 -0.399067Z" fill="#8161CC"/>
<path d="M10.5763 20.7982C11.2638 20.7994 12.3896 20.4579 13.0923 20.2963L17.3772 19.3294L20.0013 18.7442C20.4315 18.6515 20.8892 18.606 21.3062 18.4668C21.3668 18.5254 21.4067 18.5314 21.4907 18.5371C22.0141 18.5729 22.5704 18.5237 23.0977 18.5224L26.683 18.5211L37.2557 18.5321C37.3471 18.5316 37.6787 18.5084 37.7159 18.5866C37.2883 18.6698 36.7257 19.037 36.3134 19.2283L33.1132 20.6998L24.951 24.4643C23.2935 25.2267 21.597 25.9472 19.9844 26.7967L19.9306 26.7992C19.8581 26.8587 19.8194 26.9765 19.7824 27.0621C18.9347 29.026 18.2004 31.0442 17.4078 33.0311L12.0036 46.6136C10.8904 46.7005 9.7719 46.7469 8.65756 46.8198L-0.0527344 47.3939L7.85346 27.5431L9.71518 22.8648C9.88755 22.4303 10.3498 21.1085 10.5763 20.7982Z" fill="#8161CC"/>
</g>
<defs>
<clipPath id="clip0_59_4452">
<rect width="44" height="47" fill="white"/>
</clipPath>
</defs>
</svg>
