<svg width="20" height="21" viewBox="0 0 20 21" fill="none" xmlns="http://www.w3.org/2000/svg">
<path d="M19.9017 10.4999C19.9017 10.2345 19.7707 9.98 19.5374 9.7924C19.3041 9.6047 18.9878 9.49933 18.6579 9.49933H9.21699L12.0779 7.20801C12.1938 7.11472 12.2858 7.00396 12.3486 6.88207C12.4114 6.76018 12.4437 6.62954 12.4437 6.4976C12.4437 6.36566 12.4114 6.23502 12.3486 6.11313C12.2858 5.99124 12.1938 5.88048 12.0779 5.78719C11.9619 5.6939 11.8242 5.6199 11.6727 5.56941C11.5211 5.51892 11.3587 5.49293 11.1947 5.49293C11.0307 5.49293 10.8683 5.51892 10.7168 5.56941C10.5652 5.6199 10.4276 5.6939 10.3116 5.78719L5.33615 9.7895C5.22291 9.8847 5.13414 9.9969 5.07494 10.1197C4.95053 10.3633 4.95053 10.6365 5.07494 10.8801C5.13414 11.0029 5.22291 11.1152 5.33615 11.2103L10.3116 15.2126C10.4272 15.3064 10.5648 15.3808 10.7164 15.4316C10.8679 15.4824 11.0305 15.5086 11.1947 15.5086C11.3589 15.5086 11.5215 15.4824 11.6731 15.4316C11.8247 15.3808 11.9622 15.3064 12.0779 15.2126C12.1944 15.1196 12.287 15.0089 12.3501 14.887C12.4133 14.7651 12.4458 14.6343 12.4458 14.5022C12.4458 14.3701 12.4133 14.2393 12.3501 14.1174C12.287 13.9955 12.1944 13.8848 12.0779 13.7918L9.21699 11.5005H18.6579C18.9878 11.5005 19.3041 11.3951 19.5374 11.2074C19.7707 11.0198 19.9017 10.7653 19.9017 10.4999ZM16.1702 0.494141H3.73157C2.7419 0.494141 1.79276 0.81039 1.09295 1.37333C0.393147 1.93626 0 2.69976 0 3.49587V17.5039C0 18.3001 0.393147 19.0636 1.09295 19.6265C1.79276 20.1894 2.7419 20.5057 3.73157 20.5057H16.1702C17.1598 20.5057 18.109 20.1894 18.8088 19.6265C19.5086 19.0636 19.9017 18.3001 19.9017 17.5039V14.5022C19.9017 14.2368 19.7707 13.9823 19.5374 13.7947C19.3041 13.6071 18.9878 13.5016 18.6579 13.5016C18.328 13.5016 18.0116 13.6071 17.7783 13.7947C17.5451 13.9823 17.414 14.2368 17.414 14.5022V17.5039C17.414 17.7693 17.283 18.0238 17.0497 18.2115C16.8164 18.3991 16.5 18.5045 16.1702 18.5045H3.73157C3.40168 18.5045 3.0853 18.3991 2.85203 18.2115C2.61877 18.0238 2.48772 17.7693 2.48772 17.5039V3.49587C2.48772 3.2305 2.61877 2.976 2.85203 2.78836C3.0853 2.60071 3.40168 2.49529 3.73157 2.49529H16.1702C16.5 2.49529 16.8164 2.60071 17.0497 2.78836C17.283 2.976 17.414 3.2305 17.414 3.49587V6.4976C17.414 6.76297 17.5451 7.01747 17.7783 7.20511C18.0116 7.39276 18.328 7.49818 18.6579 7.49818C18.9878 7.49818 19.3041 7.39276 19.5374 7.20511C19.7707 7.01747 19.9017 6.76297 19.9017 6.4976V3.49587C19.9017 2.69976 19.5086 1.93626 18.8088 1.37333C18.109 0.81039 17.1598 0.494141 16.1702 0.494141Z" fill="#BFA3FF"/>
</svg>
