<svg width="44" height="48" viewBox="0 0 44 48" fill="none" xmlns="http://www.w3.org/2000/svg">
<g clip-path="url(#clip0_59_3967)">
<path d="M19.9844 26.7967C21.597 25.9471 23.2935 25.2267 24.951 24.4643L33.1132 20.6998L36.3134 19.2283C36.7256 19.037 37.2883 18.6698 37.7158 18.5866C37.331 19.6471 36.8951 20.6895 36.4856 21.7407C35.8628 23.3853 35.2271 25.0249 34.5787 26.6595L24.4615 26.7541C22.9693 26.7834 21.4769 26.7976 19.9844 26.7967Z" fill="#391B88"/>
<path d="M5.87842 8.60562C6.77823 8.48444 7.69147 8.57292 8.59447 8.59196C9.58209 8.61279 10.574 8.59453 11.562 8.59425C12.8389 8.59386 14.1182 8.60892 15.3948 8.58944C16.0958 8.57874 16.8095 8.50465 17.5091 8.55505L20.2586 15.713L20.9907 17.6148C21.094 17.885 21.2403 18.187 21.3065 18.4668C20.8896 18.606 20.4318 18.6515 20.0016 18.7443L17.3775 19.3295L13.0926 20.2963C12.3899 20.4579 11.2641 20.7995 10.5766 20.7982C10.4225 20.1803 9.99475 19.2369 9.75015 18.608L8.1817 14.5243L6.57545 10.3531C6.40829 9.921 6.10197 8.96805 5.87842 8.60562Z" fill="#391B88"/>
<path d="M10.5544 -0.398701L44.0335 -0.399048L39.3958 8.52929L24.2217 8.5434L20.0033 8.54122C19.1834 8.53735 18.3255 8.48315 17.5091 8.55499C16.8095 8.50459 16.0958 8.57868 15.3948 8.58938C14.1182 8.60887 12.8389 8.5938 11.562 8.59419C10.574 8.59447 9.58209 8.61273 8.59447 8.5919C7.69147 8.57286 6.77823 8.48438 5.87842 8.60556C6.58251 7.19716 7.33246 5.80618 8.05872 4.40859C8.891 2.80699 9.70546 1.19402 10.5544 -0.398701Z" fill="#5718FD"/>
<path d="M10.5763 20.7982C11.2638 20.7994 12.3896 20.4579 13.0923 20.2963L17.3772 19.3294L20.0013 18.7442C20.4315 18.6515 20.8892 18.606 21.3062 18.4668C21.3668 18.5254 21.4067 18.5314 21.4907 18.5371C22.0141 18.5729 22.5704 18.5237 23.0977 18.5224L26.683 18.5211L37.2557 18.5321C37.3471 18.5316 37.6787 18.5084 37.7159 18.5866C37.2883 18.6698 36.7257 19.037 36.3134 19.2283L33.1132 20.6998L24.951 24.4643C23.2935 25.2267 21.597 25.9472 19.9844 26.7967L19.9306 26.7992C19.8581 26.8587 19.8194 26.9765 19.7824 27.0621C18.9347 29.026 18.2004 31.0442 17.4078 33.0311L12.0036 46.6136C10.8904 46.7005 9.7719 46.7469 8.65756 46.8198L-0.0527344 47.3939L7.85346 27.5431L9.71518 22.8648C9.88755 22.4303 10.3498 21.1085 10.5763 20.7982Z" fill="#5718FD"/>
</g>
<defs>
<clipPath id="clip0_59_3967">
<rect width="44" height="48" fill="white"/>
</clipPath>
</defs>
</svg>
