<svg width="20" height="21" viewBox="0 0 20 21" fill="none" xmlns="http://www.w3.org/2000/svg">
<path d="M19.0286 9.21032L10.6588 0.784363C10.5658 0.691616 10.4555 0.618238 10.3343 0.568439C10.213 0.518639 10.0832 0.493396 9.95219 0.494157H0.995234C0.731286 0.494157 0.478148 0.599589 0.291509 0.787258C0.10487 0.974927 1.66343e-05 1.22946 1.66343e-05 1.49487V10.5012C-0.000740619 10.6329 0.0243638 10.7635 0.0738904 10.8854C0.123417 11.0073 0.196391 11.1182 0.28863 11.2117L8.66836 19.6277C9.22817 20.1899 9.98702 20.5057 10.7782 20.5057C11.5694 20.5057 12.3283 20.1899 12.8881 19.6277L19.0286 13.5034C19.5877 12.9405 19.9017 12.1774 19.9017 11.3819C19.9017 10.5863 19.5877 9.82326 19.0286 9.26036V9.21032ZM17.6253 12.0323L11.4749 18.2067C11.2884 18.3931 11.0362 18.4977 10.7732 18.4977C10.5103 18.4977 10.2581 18.3931 10.0716 18.2067L1.99045 10.0909V2.49557H9.54415L17.6253 10.6213C17.7175 10.7148 17.7905 10.8257 17.84 10.9476C17.8896 11.0696 17.9147 11.2001 17.9139 11.3318C17.9128 11.5943 17.8092 11.8459 17.6253 12.0323Z" fill="#BFA3FF"/>
</svg>
