<svg width="21" height="21" viewBox="0 0 21 21" fill="none" xmlns="http://www.w3.org/2000/svg">
<path d="M20.2505 18.7894L16.5405 15.1094C17.9806 13.3138 18.678 11.0347 18.4893 8.74072C18.3006 6.44673 17.2401 4.31221 15.526 2.77607C13.8118 1.23993 11.5743 0.418927 9.27335 0.481887C6.97247 0.544857 4.78315 1.48699 3.15557 3.11457C1.52799 4.74215 0.585862 6.93146 0.522902 9.23232C0.459942 11.5332 1.28093 13.7708 2.81707 15.4849C4.35321 17.1991 6.48773 18.2595 8.78175 18.4482C11.0758 18.6369 13.3549 17.9395 15.1505 16.4994L18.8305 20.1794C18.9234 20.2731 19.034 20.3475 19.1559 20.3983C19.2778 20.4491 19.4085 20.4752 19.5405 20.4752C19.6725 20.4752 19.8032 20.4491 19.9251 20.3983C20.0469 20.3475 20.1575 20.2731 20.2505 20.1794C20.4307 19.9929 20.5315 19.7437 20.5315 19.4844C20.5315 19.2251 20.4307 18.9759 20.2505 18.7894ZM9.54045 16.4994C8.15595 16.4994 6.80258 16.0889 5.65144 15.3197C4.50029 14.5505 3.60309 13.4573 3.07327 12.1782C2.54346 10.8991 2.40483 9.49162 2.67493 8.13382C2.94503 6.77593 3.61171 5.52864 4.59068 4.54968C5.56965 3.57071 6.81693 2.90402 8.17475 2.63393C9.53265 2.36383 10.9402 2.50245 12.2193 3.03227C13.4983 3.56208 14.5916 4.45929 15.3608 5.61043C16.1299 6.76158 16.5405 8.11492 16.5405 9.49942C16.5405 11.3559 15.803 13.1364 14.4902 14.4492C13.1775 15.7619 11.397 16.4994 9.54045 16.4994Z" fill="#BFA3FF"/>
</svg>
