<svg width="21" height="21" viewBox="0 0 21 21" fill="none" xmlns="http://www.w3.org/2000/svg">
<path d="M20.2505 18.7899L16.5405 15.1099C17.9806 13.3143 18.678 11.0352 18.4893 8.74121C18.3006 6.44722 17.2401 4.31269 15.526 2.77655C13.8118 1.24041 11.5743 0.419415 9.27335 0.482375C6.97247 0.545345 4.78315 1.48747 3.15557 3.11505C1.52799 4.74263 0.585862 6.93194 0.522902 9.2328C0.459942 11.5337 1.28093 13.7713 2.81707 15.4854C4.35321 17.1996 6.48773 18.26 8.78175 18.4487C11.0758 18.6374 13.3549 17.94 15.1505 16.4999L18.8305 20.1799C18.9234 20.2736 19.034 20.348 19.1559 20.3988C19.2778 20.4496 19.4085 20.4757 19.5405 20.4757C19.6725 20.4757 19.8032 20.4496 19.9251 20.3988C20.0469 20.348 20.1575 20.2736 20.2505 20.1799C20.4307 19.9934 20.5315 19.7442 20.5315 19.4849C20.5315 19.2256 20.4307 18.9764 20.2505 18.7899ZM9.54045 16.4999C8.15595 16.4999 6.80258 16.0894 5.65144 15.3202C4.50029 14.551 3.60309 13.4578 3.07327 12.1787C2.54346 10.8996 2.40483 9.49211 2.67493 8.13431C2.94503 6.77641 3.61171 5.52912 4.59068 4.55016C5.56965 3.57119 6.81693 2.90451 8.17475 2.63441C9.53265 2.36431 10.9402 2.50294 12.2193 3.03276C13.4983 3.56257 14.5916 4.45977 15.3608 5.61091C16.1299 6.76206 16.5405 8.1154 16.5405 9.4999C16.5405 11.3564 15.803 13.1369 14.4902 14.4497C13.1775 15.7624 11.397 16.4999 9.54045 16.4999Z" fill="#3D158B"/>
</svg>
