<svg width="22" height="23" viewBox="0 0 22 23" fill="none" xmlns="http://www.w3.org/2000/svg">
<path d="M18.0011 4.63032H18.7511V4.62662L18.0011 4.63032ZM17.3647 13.1137C17.7789 13.1137 18.1147 12.7779 18.1147 12.3637C18.1147 11.9494 17.7789 11.6137 17.3647 11.6137V13.1137ZM14.6374 11.6137C14.2232 11.6137 13.8874 11.9494 13.8874 12.3637C13.8874 12.7779 14.2232 13.1137 14.6374 13.1137V11.6137ZM9.5011 5.25H12.5011V3.75H9.5011V5.25ZM12.5011 20.75H9.5011V22.25H12.5011V20.75ZM9.5011 20.75C7.84984 20.75 6.66408 20.7492 5.73916 20.6613C4.82541 20.5744 4.24398 20.4078 3.78045 20.1237L2.99671 21.4027C3.73553 21.8554 4.57363 22.0572 5.59718 22.1545C6.60957 22.2508 7.87888 22.25 9.5011 22.25V20.75ZM0.251071 13C0.251071 14.6222 0.250281 15.8915 0.346541 16.9039C0.443861 17.9274 0.645641 18.7655 1.09839 19.5044L2.37735 18.7206C2.0933 18.2571 1.92669 17.6757 1.83981 16.7619C1.75187 15.837 1.75107 14.6512 1.75107 13H0.251071ZM3.78045 20.1237C3.20859 19.7733 2.72779 19.2925 2.37735 18.7206L1.09839 19.5044C1.57251 20.2781 2.22301 20.9286 2.99671 21.4027L3.78045 20.1237ZM12.5011 22.25C14.1233 22.25 15.3926 22.2508 16.405 22.1545C17.4285 22.0572 18.2666 21.8554 19.0054 21.4027L18.2217 20.1237C17.7582 20.4078 17.1767 20.5744 16.263 20.6613C15.3381 20.7492 14.1523 20.75 12.5011 20.75V22.25ZM19.6248 18.7206C19.2744 19.2925 18.7936 19.7733 18.2217 20.1237L19.0054 21.4027C19.7791 20.9286 20.4296 20.2781 20.9038 19.5044L19.6248 18.7206ZM18.2217 5.87628C18.7936 6.22672 19.2744 6.70752 19.6248 7.27938L20.9038 6.49563C20.4296 5.72194 19.7791 5.07144 19.0054 4.59732L18.2217 5.87628ZM9.5011 3.75C7.87888 3.75 6.60957 3.74921 5.59718 3.84547C4.57363 3.94279 3.73553 4.14457 2.99671 4.59732L3.78045 5.87628C4.24398 5.59223 4.82541 5.42561 5.73916 5.33873C6.66408 5.25079 7.84984 5.25 9.5011 5.25V3.75ZM1.75107 13C1.75107 11.3488 1.75187 10.163 1.83981 9.2381C1.92669 8.32434 2.0933 7.74291 2.37735 7.27938L1.09839 6.49563C0.645641 7.23445 0.443861 8.07256 0.346541 9.0961C0.250281 10.1085 0.251071 11.3778 0.251071 13H1.75107ZM2.99671 4.59732C2.22301 5.07144 1.57251 5.72194 1.09839 6.49563L2.37735 7.27938C2.72779 6.70752 3.20859 6.22672 3.78045 5.87628L2.99671 4.59732ZM9.0541 2.25H14.4229V0.750003H9.0541V2.25ZM14.4229 2.25C15.2886 2.25 15.8592 2.25173 16.2824 2.31105C16.6807 2.36687 16.8357 2.46039 16.9366 2.56562L18.0191 1.52728C17.5959 1.08606 17.067 0.906353 16.4906 0.825573C15.9392 0.748273 15.2444 0.750003 14.4229 0.750003V2.25ZM9.0541 0.750003C7.39395 0.750003 6.08601 0.748883 5.04835 0.866093C3.99474 0.985103 3.13076 1.2337 2.39245 1.79293L3.29814 2.98865C3.73587 2.65709 4.29871 2.4603 5.21671 2.35661C6.15067 2.25112 7.35914 2.25 9.0541 2.25V0.750003ZM1.75107 9.8956C1.75107 8.13063 1.75202 6.86468 1.85386 5.88472C1.95443 4.91704 2.14657 4.31679 2.47084 3.85148L1.2402 2.99385C0.710021 3.75462 0.474941 4.64188 0.361901 5.72968C0.250131 6.8052 0.251071 8.1627 0.251071 9.8956H1.75107ZM2.39245 1.79293C1.94913 2.12872 1.56052 2.53422 1.2402 2.99385L2.47084 3.85148C2.70242 3.51918 2.98183 3.22823 3.29814 2.98865L2.39245 1.79293ZM18.7511 4.62662C18.7477 3.94995 18.7333 3.36358 18.6486 2.87747C18.5605 2.37228 18.3865 1.91025 18.0191 1.52728L16.9366 2.56562C17.0299 2.66295 17.1142 2.80988 17.1708 3.13506C17.2308 3.47932 17.2477 3.94473 17.2511 4.63403L18.7511 4.62662ZM0.251071 9.8956C0.251071 10.8713 0.230911 11.7642 0.251331 12.5202L1.75078 12.4798C1.73103 11.7482 1.75107 10.924 1.75107 9.8956H0.251071ZM20.501 14.3409H14.6374V15.8409H20.501V14.3409ZM11.1602 12.3637C11.1602 14.2841 12.717 15.8409 14.6374 15.8409V14.3409C13.5454 14.3409 12.6602 13.4557 12.6602 12.3637H11.1602ZM12.6602 12.3637C12.6602 11.2716 13.5454 10.3864 14.6374 10.3864V8.88638C12.717 8.88638 11.1602 10.4432 11.1602 12.3637H12.6602ZM17.3647 11.6137H14.6374V13.1137H17.3647V11.6137ZM12.5011 5.25C13.8857 5.25 14.946 5.25032 15.8046 5.3033C16.6624 5.35623 17.2621 5.45942 17.7348 5.63895L18.2673 4.23667C17.5873 3.97839 16.813 3.86267 15.897 3.80615C14.9818 3.74968 13.8685 3.75 12.5011 3.75V5.25ZM17.7348 5.63895C17.9119 5.70619 18.0721 5.7846 18.2217 5.87628L19.0054 4.59732C18.772 4.45427 18.5271 4.33534 18.2673 4.23667L17.7348 5.63895ZM17.2511 4.63032V4.93781H18.7511V4.63032H17.2511ZM14.6374 10.3864H20.9455V8.88638H14.6374V10.3864ZM21.7511 13C21.7511 11.6255 21.7514 10.5077 21.694 9.5896L20.1969 9.6832C20.2507 10.5439 20.2511 11.608 20.2511 13H21.7511ZM21.694 9.5896C21.6156 8.33476 21.4258 7.34749 20.9038 6.49563L19.6248 7.27938C19.9537 7.8161 20.1234 8.50707 20.1969 9.6832L21.694 9.5896ZM20.2511 13C20.2511 13.7875 20.2511 14.4722 20.241 15.0785L21.7408 15.1034C21.7511 14.4821 21.7511 13.7839 21.7511 13H20.2511ZM20.241 15.0785C20.2085 17.037 20.0645 18.0031 19.6248 18.7206L20.9038 19.5044C21.5839 18.3944 21.7088 17.0313 21.7408 15.1034L20.241 15.0785ZM20.501 15.8409H20.9909V14.3409H20.501V15.8409Z" fill="#3D158B"/>
</svg>
