<svg width="24" height="25" viewBox="0 0 24 25" fill="none" xmlns="http://www.w3.org/2000/svg">
<path d="M12.75 7.5C12.75 7.08579 12.4142 6.75 12 6.75C11.5858 6.75 11.25 7.08579 11.25 7.5V13.5C11.25 13.9142 11.5858 14.25 12 14.25C12.4142 14.25 12.75 13.9142 12.75 13.5V7.5Z" fill="#BFA3FF"/>
<path fill-rule="evenodd" clip-rule="evenodd" d="M16.4635 2.87373C15.3214 2.74999 13.8818 2.74999 12.0452 2.75H11.9548C10.1182 2.74999 8.67861 2.74999 7.53648 2.87373C6.37094 3.00001 5.42656 3.26232 4.62024 3.84815C4.13209 4.20281 3.70281 4.63209 3.34815 5.12024C2.76232 5.92656 2.50001 6.87094 2.37373 8.03648C2.24999 9.17861 2.24999 10.6182 2.25 12.4548V12.5452C2.24999 14.3818 2.24999 15.8214 2.37373 16.9635C2.50001 18.1291 2.76232 19.0734 3.34815 19.8798C3.70281 20.3679 4.13209 20.7972 4.62024 21.1518C5.42656 21.7377 6.37094 22 7.53648 22.1263C8.67859 22.25 10.1182 22.25 11.9547 22.25H12.0453C13.8818 22.25 15.3214 22.25 16.4635 22.1263C17.6291 22 18.5734 21.7377 19.3798 21.1518C19.8679 20.7972 20.2972 20.3679 20.6518 19.8798C21.2377 19.0734 21.5 18.1291 21.6263 16.9635C21.75 15.8214 21.75 14.3818 21.75 12.5453V12.4547C21.75 10.6182 21.75 9.17859 21.6263 8.03648C21.5 6.87094 21.2377 5.92656 20.6518 5.12024C20.2972 4.63209 19.8679 4.20281 19.3798 3.84815C18.5734 3.26232 17.6291 3.00001 16.4635 2.87373ZM5.50191 5.06168C6.00992 4.69259 6.66013 4.47745 7.69804 4.365C8.74999 4.25103 10.1084 4.25 12 4.25C13.8916 4.25 15.25 4.25103 16.302 4.365C17.3399 4.47745 17.9901 4.69259 18.4981 5.06168C18.8589 5.32382 19.1762 5.64111 19.4383 6.00191C19.8074 6.50992 20.0225 7.16013 20.135 8.19804C20.249 9.24999 20.25 10.6084 20.25 12.5C20.25 14.3916 20.249 15.75 20.135 16.802C20.0225 17.8399 19.8074 18.4901 19.4383 18.9981C19.1762 19.3589 18.8589 19.6762 18.4981 19.9383C17.9901 20.3074 17.3399 20.5225 16.302 20.635C15.25 20.749 13.8916 20.75 12 20.75C10.1084 20.75 8.74999 20.749 7.69804 20.635C6.66013 20.5225 6.00992 20.3074 5.50191 19.9383C5.14111 19.6762 4.82382 19.3589 4.56168 18.9981C4.19259 18.4901 3.97745 17.8399 3.865 16.802C3.75103 15.75 3.75 14.3916 3.75 12.5C3.75 10.6084 3.75103 9.24999 3.865 8.19804C3.97745 7.16013 4.19259 6.50992 4.56168 6.00191C4.82382 5.64111 5.14111 5.32382 5.50191 5.06168Z" fill="#BFA3FF"/>
<path d="M13 16.5C13 17.0523 12.5523 17.5 12 17.5C11.4477 17.5 11 17.0523 11 16.5C11 15.9477 11.4477 15.5 12 15.5C12.5523 15.5 13 15.9477 13 16.5Z" fill="#BFA3FF"/>
</svg>
