<svg width="20" height="21" viewBox="0 0 20 21" fill="none" xmlns="http://www.w3.org/2000/svg">
<g clip-path="url(#clip0_59_4432)">
<path d="M18.9066 18.9752H1.99017V16.9741H4.97543C5.23935 16.9741 5.49245 16.8687 5.67906 16.681C5.86568 16.4934 5.97052 16.2389 5.97052 15.9735C5.97052 15.7081 5.86568 15.4536 5.67906 15.266C5.49245 15.0783 5.23935 14.9729 4.97543 14.9729H1.99017V12.9718H8.95578C9.21969 12.9718 9.47279 12.8663 9.65941 12.6787C9.84602 12.4911 9.95086 12.2366 9.95086 11.9712C9.95086 11.7058 9.84602 11.4513 9.65941 11.2637C9.47279 11.076 9.21969 10.9706 8.95578 10.9706H1.99017V8.96946H12.9361C13.2 8.96946 13.4531 8.86404 13.6398 8.67639C13.8264 8.48875 13.9312 8.23425 13.9312 7.96888C13.9312 7.70351 13.8264 7.44901 13.6398 7.26137C13.4531 7.07372 13.2 6.9683 12.9361 6.9683H1.99017V4.96715H16.9165C17.1804 4.96715 17.4335 4.86173 17.6201 4.67409C17.8067 4.48644 17.9116 4.23194 17.9116 3.96657C17.9116 3.7012 17.8067 3.4467 17.6201 3.25906C17.4335 3.07141 17.1804 2.966 16.9165 2.966H1.99017V1.96542C1.99017 1.70005 1.88533 1.44555 1.69872 1.25791C1.5121 1.07026 1.259 0.964844 0.995086 0.964844C0.731173 0.964844 0.478069 1.07026 0.291454 1.25791C0.104839 1.44555 0 1.70005 0 1.96542V19.9758C0 20.2412 0.104839 20.4957 0.291454 20.6833C0.478069 20.871 0.731173 20.9764 0.995086 20.9764H18.9066C19.1706 20.9764 19.4237 20.871 19.6103 20.6833C19.7969 20.4957 19.9017 20.2412 19.9017 19.9758C19.9017 19.7104 19.7969 19.4559 19.6103 19.2683C19.4237 19.0806 19.1706 18.9752 18.9066 18.9752Z" fill="#3D158B"/>
</g>
<defs>
<clipPath id="clip0_59_4432">
<rect width="20" height="21" fill="white"/>
</clipPath>
</defs>
</svg>
