<svg width="20" height="22" viewBox="0 0 20 22" fill="none" xmlns="http://www.w3.org/2000/svg">
<g clip-path="url(#clip0_78_12796)">
<path fill-rule="evenodd" clip-rule="evenodd" d="M0 12.6673C0 19.5298 1.47083 21.0007 8.33333 21.0007C15.1958 21.0007 16.6667 19.5298 16.6667 12.6673C16.6667 5.80481 15.1958 4.33398 8.33333 4.33398C1.47083 4.33398 0 5.80481 0 12.6673ZM1.66667 12.6673C1.66667 14.3449 1.75873 15.5792 1.96402 16.5029C2.1651 17.4077 2.45197 17.9092 2.77174 18.2289C3.09151 18.5487 3.59294 18.8356 4.49771 19.0366C5.42142 19.2419 6.65575 19.334 8.33333 19.334C10.0109 19.334 11.2452 19.2419 12.169 19.0366C13.0737 18.8356 13.5752 18.5487 13.8949 18.2289C14.2147 17.9092 14.5016 17.4077 14.7027 16.5029C14.9079 15.5792 15 14.3449 15 12.6673C15 10.9897 14.9079 9.75539 14.7027 8.83169C14.5016 7.92691 14.2147 7.42548 13.8949 7.10572C13.5752 6.78595 13.0737 6.49907 12.169 6.29799C11.2452 6.09271 10.0109 6.00064 8.33333 6.00064C6.65575 6.00064 5.42142 6.09271 4.49771 6.29799C3.59294 6.49907 3.09151 6.78595 2.77174 7.10572C2.45197 7.42548 2.1651 7.92691 1.96402 8.83169C1.75873 9.75539 1.66667 10.9897 1.66667 12.6673Z" fill="#BFA3FF"/>
<path d="M16.6376 14.1951C16.6095 14.8561 16.5599 15.4562 16.4839 16.0004C19.2874 15.2599 20.0004 13.283 20.0004 8.69232C20.0004 2.53846 18.462 1 12.3081 1C7.71739 1 5.74053 1.71305 5 4.51668C5.54424 4.44062 6.1443 4.39109 6.80534 4.36293C6.94444 4.0348 7.10177 3.8124 7.26498 3.64919C7.53761 3.37656 7.97541 3.12032 8.79535 2.93809C9.63421 2.75166 10.7625 2.66667 12.3081 2.66667C15.397 2.66667 16.6596 3.09314 17.2835 3.71698C17.9073 4.34081 18.3338 5.60348 18.3338 8.69232C18.3338 10.2379 18.2488 11.3662 18.0623 12.2051C17.8801 13.025 17.6239 13.4628 17.3513 13.7355C17.1881 13.8986 16.9657 14.056 16.6376 14.1951Z" fill="#BFA3FF"/>
</g>
<defs>
<clipPath id="clip0_78_12796">
<rect width="20" height="21" fill="white" transform="translate(0 0.5)"/>
</clipPath>
</defs>
</svg>
