<svg width="20" height="22" viewBox="0 0 20 22" fill="none" xmlns="http://www.w3.org/2000/svg">
<g clip-path="url(#clip0_70_3012)">
<path fill-rule="evenodd" clip-rule="evenodd" d="M0 12.6668C0 19.5293 1.47083 21.0002 8.33333 21.0002C15.1958 21.0002 16.6667 19.5293 16.6667 12.6668C16.6667 5.80433 15.1958 4.3335 8.33333 4.3335C1.47083 4.3335 0 5.80433 0 12.6668ZM1.66667 12.6668C1.66667 14.3444 1.75873 15.5787 1.96402 16.5024C2.1651 17.4072 2.45197 17.9087 2.77174 18.2284C3.09151 18.5482 3.59294 18.8351 4.49771 19.0361C5.42142 19.2414 6.65575 19.3335 8.33333 19.3335C10.0109 19.3335 11.2452 19.2414 12.169 19.0361C13.0737 18.8351 13.5752 18.5482 13.8949 18.2284C14.2147 17.9087 14.5016 17.4072 14.7027 16.5024C14.9079 15.5787 15 14.3444 15 12.6668C15 10.9892 14.9079 9.75491 14.7027 8.83121C14.5016 7.92643 14.2147 7.425 13.8949 7.10524C13.5752 6.78547 13.0737 6.49859 12.169 6.29751C11.2452 6.09223 10.0109 6.00016 8.33333 6.00016C6.65575 6.00016 5.42142 6.09223 4.49771 6.29751C3.59294 6.49859 3.09151 6.78547 2.77174 7.10524C2.45197 7.425 2.1651 7.92643 1.96402 8.83121C1.75873 9.75491 1.66667 10.9892 1.66667 12.6668Z" fill="#3D158B"/>
<path d="M16.6376 14.1951C16.6095 14.8561 16.5599 15.4562 16.4839 16.0004C19.2874 15.2599 20.0004 13.283 20.0004 8.69232C20.0004 2.53846 18.462 1 12.3081 1C7.71739 1 5.74053 1.71305 5 4.51668C5.54424 4.44062 6.1443 4.39109 6.80534 4.36293C6.94444 4.0348 7.10177 3.8124 7.26498 3.64919C7.53761 3.37656 7.97541 3.12032 8.79535 2.93809C9.63421 2.75166 10.7625 2.66667 12.3081 2.66667C15.397 2.66667 16.6596 3.09314 17.2835 3.71698C17.9073 4.34081 18.3338 5.60348 18.3338 8.69232C18.3338 10.2379 18.2488 11.3662 18.0623 12.2051C17.8801 13.025 17.6239 13.4628 17.3513 13.7355C17.1881 13.8986 16.9657 14.056 16.6376 14.1951Z" fill="#3D158B"/>
</g>
<defs>
<clipPath id="clip0_70_3012">
<rect width="20" height="21" fill="white" transform="translate(0 0.5)"/>
</clipPath>
</defs>
</svg>
