<svg width="40" height="40" viewBox="0 0 40 40" fill="none" xmlns="http://www.w3.org/2000/svg">
<g clip-path="url(#clip0_59_4918)">
<path d="M29.6431 27.9607L30.0273 28.3611L30.2466 28.1506L30.1874 27.8526L29.6431 27.9607ZM10.3594 27.9607L9.8151 27.8526L9.75586 28.1506L9.97514 28.3611L10.3594 27.9607ZM25.0171 13.7331C25.0171 16.5033 22.7714 18.7489 20.0012 18.7489V19.8587C23.3843 19.8587 26.1269 17.1162 26.1269 13.7331H25.0171ZM20.0012 18.7489C17.231 18.7489 14.9854 16.5033 14.9854 13.7331H13.8756C13.8756 17.1162 16.6181 19.8587 20.0012 19.8587V18.7489ZM14.9854 13.7331C14.9854 10.9629 17.231 8.71722 20.0012 8.71722V7.60742C16.6181 7.60742 13.8756 10.35 13.8756 13.7331H14.9854ZM20.0012 8.71722C22.7714 8.71722 25.0171 10.9629 25.0171 13.7331H26.1269C26.1269 10.35 23.3843 7.60742 20.0012 7.60742V8.71722ZM15.8232 24.0368H24.1793V22.927H15.8232V24.0368ZM29.2589 27.5604C26.8557 29.8666 23.5945 31.2832 20.0012 31.2832V32.393C23.8922 32.393 27.4258 30.8577 30.0273 28.3611L29.2589 27.5604ZM24.1793 24.0368C26.6124 24.0368 28.6419 25.7697 29.0988 28.0689L30.1874 27.8526C29.6292 25.0441 27.1521 22.927 24.1793 22.927V24.0368ZM20.0012 31.2832C16.408 31.2832 13.1468 29.8666 10.7436 27.5604L9.97514 28.3611C12.5767 30.8577 16.1103 32.393 20.0012 32.393V31.2832ZM15.8232 22.927C12.8504 22.927 10.3733 25.0441 9.8151 27.8526L10.9036 28.0689C11.3606 25.7697 13.3901 24.0368 15.8232 24.0368V22.927Z" fill="#BFA3FF"/>
<path d="M20.7634 1.13379H19.2365C8.81674 1.13379 0.369873 9.58065 0.369873 20.0004C0.369873 30.4201 8.81674 38.867 19.2365 38.867H20.7634C31.1831 38.867 39.63 30.4201 39.63 20.0004C39.63 9.58065 31.1831 1.13379 20.7634 1.13379Z" stroke="#BFA3FF" stroke-width="0.739867"/>
</g>
<defs>
<clipPath id="clip0_59_4918">
<rect width="40" height="40" fill="white"/>
</clipPath>
</defs>
</svg>
