<svg width="40" height="40" viewBox="0 0 40 40" fill="none" xmlns="http://www.w3.org/2000/svg">
<g clip-path="url(#clip0_59_4397)">
<path d="M29.6431 27.9605L30.0273 28.3609L30.2466 28.1504L30.1874 27.8524L29.6431 27.9605ZM10.3594 27.9605L9.8151 27.8524L9.75586 28.1504L9.97514 28.3609L10.3594 27.9605ZM25.0171 13.7329C25.0171 16.5031 22.7714 18.7487 20.0012 18.7487V19.8585C23.3843 19.8585 26.1269 17.116 26.1269 13.7329H25.0171ZM20.0012 18.7487C17.231 18.7487 14.9854 16.5031 14.9854 13.7329H13.8756C13.8756 17.116 16.6181 19.8585 20.0012 19.8585V18.7487ZM14.9854 13.7329C14.9854 10.9627 17.231 8.71704 20.0012 8.71704V7.60724C16.6181 7.60724 13.8756 10.3498 13.8756 13.7329H14.9854ZM20.0012 8.71704C22.7714 8.71704 25.0171 10.9627 25.0171 13.7329H26.1269C26.1269 10.3498 23.3843 7.60724 20.0012 7.60724V8.71704ZM15.8232 24.0366H24.1793V22.9268H15.8232V24.0366ZM29.2589 27.5602C26.8557 29.8664 23.5945 31.283 20.0012 31.283V32.3928C23.8922 32.3928 27.4258 30.8575 30.0273 28.3609L29.2589 27.5602ZM24.1793 24.0366C26.6124 24.0366 28.6419 25.7695 29.0988 28.0687L30.1874 27.8524C29.6292 25.0439 27.1521 22.9268 24.1793 22.9268V24.0366ZM20.0012 31.283C16.408 31.283 13.1468 29.8664 10.7436 27.5602L9.97514 28.3609C12.5767 30.8575 16.1103 32.3928 20.0012 32.3928V31.283ZM15.8232 22.9268C12.8504 22.9268 10.3733 25.0439 9.8151 27.8524L10.9036 28.0687C11.3606 25.7695 13.3901 24.0366 15.8232 24.0366V22.9268Z" fill="#3D158B"/>
<path d="M20.7634 1.13361H19.2365C8.81674 1.13361 0.369873 9.58047 0.369873 20.0002C0.369873 30.4199 8.81674 38.8668 19.2365 38.8668H20.7634C31.1831 38.8668 39.63 30.4199 39.63 20.0002C39.63 9.58047 31.1831 1.13361 20.7634 1.13361Z" stroke="#3D158B" stroke-width="0.739867"/>
</g>
<defs>
<clipPath id="clip0_59_4397">
<rect width="40" height="40" fill="white"/>
</clipPath>
</defs>
</svg>
