<svg width="16" height="16" viewBox="0 0 16 16" fill="none" xmlns="http://www.w3.org/2000/svg">
<g clip-path="url(#clip0_65_3996)">
<path d="M8 3.2C7.78783 3.2 7.58434 3.28429 7.43431 3.43431C7.28429 3.58434 7.2 3.78783 7.2 4V12C7.2 12.2122 7.28429 12.4157 7.43431 12.5657C7.58434 12.7157 7.78783 12.8 8 12.8C8.21217 12.8 8.41566 12.7157 8.56569 12.5657C8.71571 12.4157 8.8 12.2122 8.8 12V4C8.8 3.78783 8.71571 3.58434 8.56569 3.43431C8.41566 3.28429 8.21217 3.2 8 3.2ZM4 8C3.78783 8 3.58434 8.08429 3.43431 8.23431C3.28429 8.38434 3.2 8.58783 3.2 8.8V12C3.2 12.2122 3.28429 12.4157 3.43431 12.5657C3.58434 12.7157 3.78783 12.8 4 12.8C4.21217 12.8 4.41566 12.7157 4.56569 12.5657C4.71571 12.4157 4.8 12.2122 4.8 12V8.8C4.8 8.58783 4.71571 8.38434 4.56569 8.23431C4.41566 8.08429 4.21217 8 4 8ZM12 6.4C11.7878 6.4 11.5843 6.48429 11.4343 6.63432C11.2843 6.78434 11.2 6.98783 11.2 7.2V12C11.2 12.2122 11.2843 12.4157 11.4343 12.5657C11.5843 12.7157 11.7878 12.8 12 12.8C12.2122 12.8 12.4157 12.7157 12.5657 12.5657C12.7157 12.4157 12.8 12.2122 12.8 12V7.2C12.8 6.98783 12.7157 6.78434 12.5657 6.63432C12.4157 6.48429 12.2122 6.4 12 6.4ZM13.6 0H2.4C1.76348 0 1.15303 0.252856 0.702944 0.702944C0.252856 1.15303 0 1.76348 0 2.4V13.6C0 14.2365 0.252856 14.847 0.702944 15.2971C1.15303 15.7471 1.76348 16 2.4 16H13.6C14.2365 16 14.847 15.7471 15.2971 15.2971C15.7471 14.847 16 14.2365 16 13.6V2.4C16 1.76348 15.7471 1.15303 15.2971 0.702944C14.847 0.252856 14.2365 0 13.6 0ZM14.4 13.6C14.4 13.8122 14.3157 14.0157 14.1657 14.1657C14.0157 14.3157 13.8122 14.4 13.6 14.4H2.4C2.18783 14.4 1.98434 14.3157 1.83431 14.1657C1.68429 14.0157 1.6 13.8122 1.6 13.6V2.4C1.6 2.18783 1.68429 1.98434 1.83431 1.83431C1.98434 1.68429 2.18783 1.6 2.4 1.6H13.6C13.8122 1.6 14.0157 1.68429 14.1657 1.83431C14.3157 1.98434 14.4 2.18783 14.4 2.4V13.6Z" fill="#3D158B"/>
</g>
<defs>
<clipPath id="clip0_65_3996">
<rect width="16" height="16" fill="white"/>
</clipPath>
</defs>
</svg>
