<svg width="16" height="12" viewBox="0 0 16 12" fill="none" xmlns="http://www.w3.org/2000/svg">
<path d="M14.7085 1.20986C14.6155 1.11613 14.5049 1.04174 14.3831 0.990973C14.2612 0.940203 14.1305 0.914062 13.9985 0.914062C13.8665 0.914062 13.7358 0.940203 13.6139 0.990973C13.492 1.04174 13.3814 1.11613 13.2885 1.20986L5.83849 8.6699L2.70849 5.5299C2.61196 5.4366 2.49802 5.3633 2.37317 5.3141C2.24831 5.2649 2.11499 5.2408 1.98081 5.2431C1.84663 5.2454 1.71422 5.2741 1.59114 5.3276C1.46806 5.3811 1.35672 5.4583 1.26348 5.5549C1.17025 5.6514 1.09693 5.7653 1.04773 5.8902C0.998517 6.015 0.974386 6.1484 0.976716 6.2825C0.979036 6.4167 1.00776 6.5491 1.06126 6.6722C1.11475 6.7953 1.19196 6.9066 1.28848 6.9999L5.12849 10.8399C5.22145 10.9336 5.33205 11.008 5.45391 11.0588C5.57577 11.1095 5.70647 11.1357 5.83849 11.1357C5.9705 11.1357 6.1012 11.1095 6.2231 11.0588C6.3449 11.008 6.4555 10.9336 6.5485 10.8399L14.7085 2.67986C14.81 2.58622 14.891 2.47257 14.9464 2.34607C15.0018 2.21957 15.0304 2.08296 15.0304 1.94486C15.0304 1.80676 15.0018 1.67015 14.9464 1.54365C14.891 1.41715 14.81 1.3035 14.7085 1.20986Z" fill="#BFA3FF"/>
</svg>
