<svg width="24" height="26" viewBox="0 0 24 26" fill="none" xmlns="http://www.w3.org/2000/svg">
<path d="M18.7085 8.20986C18.6155 8.11613 18.5049 8.04174 18.3831 7.99097C18.2612 7.9402 18.1305 7.91406 17.9985 7.91406C17.8665 7.91406 17.7358 7.9402 17.6139 7.99097C17.492 8.04174 17.3814 8.11613 17.2885 8.20986L9.83849 15.6699L6.70849 12.5299C6.61196 12.4366 6.49802 12.3633 6.37317 12.3141C6.24831 12.2649 6.11499 12.2408 5.98081 12.2431C5.84663 12.2454 5.71422 12.2741 5.59114 12.3276C5.46806 12.3811 5.35672 12.4583 5.26348 12.5549C5.17025 12.6514 5.09693 12.7653 5.04773 12.8902C4.99852 13.015 4.97439 13.1484 4.97672 13.2825C4.97904 13.4167 5.00776 13.5491 5.06126 13.6722C5.11475 13.7953 5.19196 13.9066 5.28848 13.9999L9.12849 17.8399C9.22145 17.9336 9.33205 18.008 9.45391 18.0588C9.57577 18.1095 9.70647 18.1357 9.83849 18.1357C9.9705 18.1357 10.1012 18.1095 10.2231 18.0588C10.3449 18.008 10.4555 17.9336 10.5485 17.8399L18.7085 9.67986C18.81 9.58622 18.891 9.47257 18.9464 9.34607C19.0018 9.21957 19.0304 9.08296 19.0304 8.94486C19.0304 8.80676 19.0018 8.67015 18.9464 8.54365C18.891 8.41715 18.81 8.3035 18.7085 8.20986Z" fill="#3D158B"/>
</svg>
