<svg width="16" height="16" viewBox="0 0 16 16" fill="none" xmlns="http://www.w3.org/2000/svg">
<path d="M4.4 11.2C4.71826 11.2 5.02348 11.0736 5.24853 10.8485C5.47357 10.6235 5.6 10.3183 5.6 10C5.60391 9.9601 5.60391 9.9199 5.6 9.88L7.832 7.648H8.016H8.2L9.488 8.936C9.488 8.936 9.488 8.976 9.488 9C9.488 9.31826 9.61443 9.62348 9.83947 9.84853C10.0645 10.0736 10.3697 10.2 10.688 10.2C11.0063 10.2 11.3115 10.0736 11.5365 9.84853C11.7616 9.62348 11.888 9.31826 11.888 9V8.936L14.8 6C15.0373 6 15.2693 5.92962 15.4667 5.79776C15.664 5.66591 15.8178 5.47849 15.9087 5.25922C15.9995 5.03995 16.0232 4.79867 15.9769 4.56589C15.9306 4.33311 15.8164 4.11929 15.6485 3.95147C15.4807 3.78365 15.2669 3.66936 15.0341 3.62306C14.8013 3.57676 14.5601 3.60052 14.3408 3.69134C14.1215 3.78217 13.9341 3.93598 13.8022 4.13332C13.6704 4.33065 13.6 4.56266 13.6 4.8C13.5961 4.8399 13.5961 4.8801 13.6 4.92L10.712 7.808H10.584L9.2 6.4C9.2 6.08174 9.07357 5.77652 8.84853 5.55147C8.62348 5.32643 8.31826 5.2 8 5.2C7.68174 5.2 7.37652 5.32643 7.15147 5.55147C6.92643 5.77652 6.8 6.08174 6.8 6.4L4.4 8.8C4.08174 8.8 3.77652 8.92643 3.55147 9.15147C3.32643 9.37652 3.2 9.68174 3.2 10C3.2 10.3183 3.32643 10.6235 3.55147 10.8485C3.77652 11.0736 4.08174 11.2 4.4 11.2ZM15.2 14.4H1.6V0.8C1.6 0.587827 1.51571 0.384344 1.36569 0.234315C1.21566 0.0842854 1.01217 0 0.8 0C0.587827 0 0.384344 0.0842854 0.234315 0.234315C0.0842854 0.384344 0 0.587827 0 0.8V15.2C0 15.4122 0.0842854 15.6157 0.234315 15.7657C0.384344 15.9157 0.587827 16 0.8 16H15.2C15.4122 16 15.6157 15.9157 15.7657 15.7657C15.9157 15.6157 16 15.4122 16 15.2C16 14.9878 15.9157 14.7843 15.7657 14.6343C15.6157 14.4843 15.4122 14.4 15.2 14.4Z" fill="#BFA3FF"/>
</svg>
