<svg width="16" height="16" viewBox="0 0 16 16" fill="none" xmlns="http://www.w3.org/2000/svg">
<path d="M3.76117 6.75596C4.35435 6.75596 4.93421 6.58006 5.42743 6.25051C5.92064 5.92095 6.30506 5.45254 6.53206 4.90451C6.75906 4.35648 6.81845 3.75344 6.70273 3.17166C6.587 2.58987 6.30136 2.05547 5.88191 1.63602C5.46247 1.21658 4.92806 0.930933 4.34628 0.815208C3.76449 0.699484 3.16145 0.758878 2.61342 0.985879C2.06539 1.21288 1.59698 1.5973 1.26743 2.09051C0.937873 2.58372 0.761974 3.16359 0.761974 3.75677C0.762842 4.55194 1.07911 5.31429 1.64138 5.87656C2.20364 6.43883 2.966 6.75509 3.76117 6.75596ZM3.76117 2.75704C3.95889 2.75704 4.15218 2.81567 4.31659 2.92553C4.48099 3.03538 4.60913 3.19151 4.6848 3.37419C4.76046 3.55687 4.78026 3.75788 4.74169 3.95181C4.70311 4.14574 4.6079 4.32387 4.46808 4.46369C4.32827 4.6035 4.15013 4.69872 3.9562 4.73729C3.76227 4.77587 3.56126 4.75607 3.37858 4.6804C3.19591 4.60473 3.03977 4.4766 2.92992 4.31219C2.82007 4.14779 2.76143 3.9545 2.76143 3.75677C2.76161 3.49168 2.867 3.2375 3.05444 3.05005C3.24189 2.8626 3.49607 2.75722 3.76117 2.75704ZM12.2433 9.23967C11.6501 9.23967 11.0702 9.41557 10.577 9.74513C10.0838 10.0747 9.69937 10.5431 9.47237 11.0911C9.24537 11.6392 9.18597 12.2422 9.3017 12.824C9.41742 13.4058 9.70307 13.9402 10.1225 14.3596C10.542 14.7791 11.0764 15.0647 11.6581 15.1804C12.2399 15.2962 12.843 15.2368 13.391 15.0098C13.939 14.7828 14.4074 14.3983 14.737 13.9051C15.0666 13.4119 15.2424 12.832 15.2424 12.2389C15.2416 11.4437 14.9253 10.6813 14.363 10.1191C13.8008 9.55681 13.0384 9.24054 12.2433 9.23967ZM12.2433 13.2386C12.0455 13.2386 11.8522 13.18 11.6878 13.0701C11.5234 12.9603 11.3953 12.8041 11.3196 12.6214C11.244 12.4388 11.2242 12.2378 11.2627 12.0438C11.3013 11.8499 11.3965 11.6718 11.5363 11.5319C11.6762 11.3921 11.8543 11.2969 12.0482 11.2583C12.2422 11.2198 12.4432 11.2396 12.6258 11.3152C12.8085 11.3909 12.9647 11.519 13.0745 11.6834C13.1844 11.8478 13.243 12.0411 13.243 12.2389C13.2428 12.504 13.1374 12.7581 12.95 12.9456C12.7625 13.133 12.5083 13.2384 12.2433 13.2386ZM15.7071 0.292895C15.6143 0.200039 15.5041 0.126379 15.3829 0.0761227C15.2616 0.0258667 15.1316 0 15.0003 0C14.869 0 14.739 0.0258667 14.6177 0.0761227C14.4965 0.126379 14.3863 0.200039 14.2935 0.292895L0.297229 14.2891C0.203449 14.3817 0.128909 14.492 0.0778993 14.6135C0.0268896 14.735 0.000416791 14.8655 4.88208e-06 14.9973C-0.000407026 15.1291 0.0252499 15.2596 0.0754991 15.3815C0.125748 15.5033 0.199598 15.614 0.292797 15.7072C0.385997 15.8004 0.496706 15.8743 0.618555 15.9245C0.740404 15.9748 0.870986 16.0004 1.00279 16C1.13459 15.9996 1.265 15.9731 1.38653 15.9221C1.50806 15.8711 1.6183 15.7965 1.71091 15.7027L15.7071 1.70651C15.8 1.61371 15.8736 1.50352 15.9239 1.38224C15.9741 1.26097 16 1.13098 16 0.999704C16 0.868429 15.9741 0.73844 15.9239 0.617164C15.8736 0.495887 15.8 0.385699 15.7071 0.292895Z" fill="#BFA3FF"/>
</svg>
