<svg width="16" height="16" viewBox="0 0 16 16" fill="none" xmlns="http://www.w3.org/2000/svg">
<path d="M15.2 14.4H1.6V12.8H4C4.21217 12.8 4.41566 12.7157 4.56569 12.5657C4.71571 12.4157 4.8 12.2122 4.8 12C4.8 11.7878 4.71571 11.5843 4.56569 11.4343C4.41566 11.2843 4.21217 11.2 4 11.2H1.6V9.6H7.2C7.41217 9.6 7.61566 9.5157 7.76569 9.36569C7.91571 9.21566 8 9.01217 8 8.8C8 8.58783 7.91571 8.38434 7.76569 8.23431C7.61566 8.08429 7.41217 8 7.2 8H1.6V6.4H10.4C10.6122 6.4 10.8157 6.31571 10.9657 6.16569C11.1157 6.01566 11.2 5.81217 11.2 5.6C11.2 5.38783 11.1157 5.18434 10.9657 5.03431C10.8157 4.88429 10.6122 4.8 10.4 4.8H1.6V3.2H13.6C13.8122 3.2 14.0157 3.11571 14.1657 2.96569C14.3157 2.81566 14.4 2.61217 14.4 2.4C14.4 2.18783 14.3157 1.98434 14.1657 1.83431C14.0157 1.68429 13.8122 1.6 13.6 1.6H1.6V0.8C1.6 0.58783 1.51571 0.384344 1.36569 0.234315C1.21566 0.084285 1.01217 0 0.8 0C0.587827 0 0.384344 0.084285 0.234315 0.234315C0.0842854 0.384344 0 0.58783 0 0.8V15.2C0 15.4122 0.0842854 15.6157 0.234315 15.7657C0.384344 15.9157 0.587827 16 0.8 16H15.2C15.4122 16 15.6157 15.9157 15.7657 15.7657C15.9157 15.6157 16 15.4122 16 15.2C16 14.9878 15.9157 14.7843 15.7657 14.6343C15.6157 14.4843 15.4122 14.4 15.2 14.4Z" fill="#BFA3FF"/>
</svg>
