<svg width="16" height="18" viewBox="0 0 16 18" fill="none" xmlns="http://www.w3.org/2000/svg">
<path d="M15.2 15.4H1.6V13.8H4C4.21217 13.8 4.41566 13.7157 4.56569 13.5657C4.71571 13.4157 4.8 13.2122 4.8 13C4.8 12.7878 4.71571 12.5843 4.56569 12.4343C4.41566 12.2843 4.21217 12.2 4 12.2H1.6V10.6H7.2C7.41217 10.6 7.61566 10.5157 7.76569 10.3657C7.91571 10.2157 8 10.0122 8 9.8C8 9.58783 7.91571 9.38434 7.76569 9.23431C7.61566 9.08429 7.41217 9 7.2 9H1.6V7.4H10.4C10.6122 7.4 10.8157 7.31571 10.9657 7.16569C11.1157 7.01566 11.2 6.81217 11.2 6.6C11.2 6.38783 11.1157 6.18434 10.9657 6.03431C10.8157 5.88429 10.6122 5.8 10.4 5.8H1.6V4.2H13.6C13.8122 4.2 14.0157 4.11571 14.1657 3.96569C14.3157 3.81566 14.4 3.61217 14.4 3.4C14.4 3.18783 14.3157 2.98434 14.1657 2.83431C14.0157 2.68429 13.8122 2.6 13.6 2.6H1.6V1.8C1.6 1.58783 1.51571 1.38434 1.36569 1.23431C1.21566 1.08428 1.01217 1 0.8 1C0.587827 1 0.384344 1.08428 0.234315 1.23431C0.0842854 1.38434 0 1.58783 0 1.8V16.2C0 16.4122 0.0842854 16.6157 0.234315 16.7657C0.384344 16.9157 0.587827 17 0.8 17H15.2C15.4122 17 15.6157 16.9157 15.7657 16.7657C15.9157 16.6157 16 16.4122 16 16.2C16 15.9878 15.9157 15.7843 15.7657 15.6343C15.6157 15.4843 15.4122 15.4 15.2 15.4Z" fill="#3D158B"/>
</svg>
