<svg width="13" height="16" viewBox="0 0 13 16" fill="none" xmlns="http://www.w3.org/2000/svg">
<path d="M12.272 11.2C12.2285 11.1028 12.169 11.0135 12.096 10.936L8.39199 7.19999C8.23895 7.06893 8.04209 7.00045 7.84075 7.00822C7.63941 7.016 7.44842 7.09947 7.30594 7.24194C7.16347 7.38442 7.08 7.57541 7.07222 7.77675C7.06445 7.97809 7.13293 8.17495 7.26399 8.32799L9.59999 10.664H4C3.36348 10.664 2.75303 10.4111 2.30294 9.961C1.85285 9.511 1.6 8.90051 1.6 8.26399V0.8C1.6 0.58783 1.51571 0.384343 1.36568 0.234314C1.21566 0.084285 1.01217 0 0.799999 0C0.587826 0 0.384344 0.084285 0.234315 0.234314C0.0842856 0.384343 0 0.58783 0 0.8V8.29599C0 9.35686 0.421427 10.3743 1.17157 11.1244C1.92172 11.8746 2.93913 12.296 4 12.296H9.59999L7.26399 14.632C7.18901 14.7064 7.1295 14.7948 7.08888 14.8923C7.04827 14.9898 7.02736 15.0944 7.02736 15.2C7.02736 15.3056 7.04827 15.4102 7.08888 15.5076C7.1295 15.6051 7.18901 15.6936 7.26399 15.768C7.33875 15.8421 7.4274 15.9008 7.52487 15.9406C7.62234 15.9804 7.72671 16.0006 7.83199 16C8.04187 15.9991 8.24298 15.9158 8.39199 15.768L12.096 12.064C12.1717 11.9886 12.2315 11.8989 12.272 11.8C12.3498 11.6076 12.3498 11.3924 12.272 11.2Z" fill="#BFA3FF"/>
</svg>
