<svg width="13" height="18" viewBox="0 0 13 18" fill="none" xmlns="http://www.w3.org/2000/svg">
<path d="M12.272 12.2C12.2285 12.1028 12.169 12.0135 12.096 11.936L8.39199 8.19999C8.23895 8.06893 8.04209 8.00045 7.84075 8.00822C7.63941 8.016 7.44842 8.09947 7.30594 8.24194C7.16347 8.38442 7.08 8.57541 7.07222 8.77675C7.06445 8.97809 7.13293 9.17495 7.26399 9.32799L9.59999 11.664H4C3.36348 11.664 2.75303 11.4111 2.30294 10.961C1.85285 10.511 1.6 9.90051 1.6 9.26399V1.8C1.6 1.58783 1.51571 1.38434 1.36568 1.23431C1.21566 1.08429 1.01217 1 0.799999 1C0.587826 1 0.384344 1.08429 0.234315 1.23431C0.0842856 1.38434 0 1.58783 0 1.8V9.29599C0 10.3569 0.421427 11.3743 1.17157 12.1244C1.92172 12.8746 2.93913 13.296 4 13.296H9.59999L7.26399 15.632C7.18901 15.7064 7.1295 15.7948 7.08888 15.8923C7.04827 15.9898 7.02736 16.0944 7.02736 16.2C7.02736 16.3056 7.04827 16.4102 7.08888 16.5076C7.1295 16.6051 7.18901 16.6936 7.26399 16.768C7.33875 16.8421 7.4274 16.9008 7.52487 16.9406C7.62234 16.9804 7.72671 17.0006 7.83199 17C8.04187 16.9991 8.24298 16.9158 8.39199 16.768L12.096 13.064C12.1717 12.9886 12.2315 12.8989 12.272 12.8C12.3498 12.6076 12.3498 12.3924 12.272 12.2Z" fill="#3D158B"/>
</svg>
