<svg width="22" height="21" viewBox="0 0 22 21" fill="none" xmlns="http://www.w3.org/2000/svg">
<path d="M9.5 19.25C8.3244 19.25 7.48204 19.2496 6.81769 19.2021C6.1608 19.1551 5.73463 19.0649 5.38514 18.9133L4.78803 20.2893C5.3574 20.5364 5.97308 20.6455 6.71075 20.6983C7.44097 20.7504 8.34589 20.75 9.5 20.75V19.25ZM1.25 12.1429C1.25 13.3534 1.24963 14.2971 1.29916 15.0577C1.34909 15.8243 1.45201 16.4576 1.68314 17.0422L3.07806 16.4907C2.92859 16.1126 2.84121 15.6545 2.79599 14.9602C2.75037 14.2597 2.75 13.373 2.75 12.1429H1.25ZM5.38514 18.9133C4.34904 18.4637 3.51518 17.5962 3.07806 16.4907L1.68314 17.0422C2.26097 18.5036 3.37384 19.6756 4.78803 20.2893L5.38514 18.9133ZM19.25 12.1429C19.25 13.373 19.2496 14.2597 19.204 14.9602C19.1588 15.6545 19.0714 16.1126 18.9219 16.4907L20.3169 17.0422C20.548 16.4576 20.6509 15.8243 20.7008 15.0577C20.7504 14.2971 20.75 13.3534 20.75 12.1429H19.25ZM12.5 20.75C13.6541 20.75 14.559 20.7504 15.2893 20.6983C16.0269 20.6455 16.6426 20.5364 17.212 20.2893L16.6149 18.9133C16.2654 19.0649 15.8392 19.1551 15.1823 19.2021C14.518 19.2496 13.6756 19.25 12.5 19.25V20.75ZM18.9219 16.4907C18.4848 17.5962 17.651 18.4637 16.6149 18.9133L17.212 20.2893C18.6262 19.6756 19.739 18.5036 20.3169 17.0422L18.9219 16.4907ZM2.75 12.1429C2.75 10.6696 2.68173 10.3013 2.74703 9.5664L1.25291 9.4336C1.18073 10.246 1.25 10.857 1.25 12.1429H2.75ZM18.5 5.75C19.4665 5.75 20.25 6.5335 20.25 7.5H21.75C21.75 5.70507 20.2949 4.25 18.5 4.25V5.75ZM3.5 4.25C1.70507 4.25 0.25 5.70507 0.25 7.5H1.75C1.75 6.5335 2.5335 5.75 3.5 5.75V4.25ZM10.25 5V19H11.75V5H10.25ZM13 4.25H11V5.75H13V4.25ZM11.75 5V3H10.25V5H11.75ZM14.25 3C14.25 3.69036 13.6904 4.25 13 4.25V5.75C14.5188 5.75 15.75 4.51878 15.75 3H14.25ZM13 1.75C13.6904 1.75 14.25 2.30964 14.25 3H15.75C15.75 1.48122 14.5188 0.25 13 0.25V1.75ZM13 0.25C11.4812 0.25 10.25 1.48122 10.25 3H11.75C11.75 2.30964 12.3096 1.75 13 1.75V0.25ZM9 5.75H11V4.25H9V5.75ZM6.25 3C6.25 4.51878 7.48122 5.75 9 5.75V4.25C8.30964 4.25 7.75 3.69036 7.75 3H6.25ZM9 0.25C7.48122 0.25 6.25 1.48122 6.25 3H7.75C7.75 2.30964 8.30964 1.75 9 1.75V0.25ZM9 1.75C9.6904 1.75 10.25 2.30964 10.25 3H11.75C11.75 1.48122 10.5188 0.25 9 0.25V1.75ZM3.5 5.75H11V4.25H3.5V5.75ZM11 5.75H18.5V4.25H11V5.75ZM12.5 19.25H11V20.75H12.5V19.25ZM11 19.25H9.5V20.75H11V19.25ZM10.25 19V20H11.75V19H10.25ZM18.5 9.25H11V10.75H18.5V9.25ZM11 9.25H3.5V10.75H11V9.25ZM3.5 9.25C3.11829 9.25 2.76714 9.1287 2.48011 8.9223L1.60455 10.1403C2.13821 10.5239 2.79381 10.75 3.5 10.75V9.25ZM2.48011 8.9223C2.03646 8.6034 1.75 8.08516 1.75 7.5H0.25C0.25 8.5884 0.78572 9.5516 1.60455 10.1403L2.48011 8.9223ZM20.25 7.5C20.25 8.09197 19.9568 8.6155 19.5043 8.9334L20.3665 10.1608C21.2017 9.5742 21.75 8.6012 21.75 7.5H20.25ZM19.5043 8.9334C19.2202 9.133 18.8749 9.25 18.5 9.25V10.75C19.1934 10.75 19.8381 10.532 20.3665 10.1608L19.5043 8.9334ZM20.75 12.1429C20.75 10.7979 20.7505 10.2674 20.6826 9.4825L19.1882 9.6118C19.2495 10.3207 19.25 10.7851 19.25 12.1429H20.75Z" fill="#BFA3FF"/>
</svg>
