<svg width="24" height="26" viewBox="0 0 24 26" fill="none" xmlns="http://www.w3.org/2000/svg">
<path d="M10.5 21.25C9.3244 21.25 8.48204 21.2496 7.81769 21.2021C7.1608 21.1551 6.73463 21.0649 6.38514 20.9133L5.78803 22.2893C6.3574 22.5364 6.97308 22.6455 7.71075 22.6983C8.44097 22.7504 9.34589 22.75 10.5 22.75V21.25ZM2.25 14.1429C2.25 15.3534 2.24963 16.2971 2.29916 17.0577C2.34909 17.8243 2.45201 18.4576 2.68314 19.0422L4.07806 18.4907C3.92859 18.1126 3.84121 17.6545 3.79599 16.9602C3.75037 16.2597 3.75 15.373 3.75 14.1429H2.25ZM6.38514 20.9133C5.34904 20.4637 4.51518 19.5962 4.07806 18.4907L2.68314 19.0422C3.26097 20.5036 4.37384 21.6756 5.78803 22.2893L6.38514 20.9133ZM20.25 14.1429C20.25 15.373 20.2496 16.2597 20.204 16.9602C20.1588 17.6545 20.0714 18.1126 19.9219 18.4907L21.3169 19.0422C21.548 18.4576 21.6509 17.8243 21.7008 17.0577C21.7504 16.2971 21.75 15.3534 21.75 14.1429H20.25ZM13.5 22.75C14.6541 22.75 15.559 22.7504 16.2893 22.6983C17.0269 22.6455 17.6426 22.5364 18.212 22.2893L17.6149 20.9133C17.2654 21.0649 16.8392 21.1551 16.1823 21.2021C15.518 21.2496 14.6756 21.25 13.5 21.25V22.75ZM19.9219 18.4907C19.4848 19.5962 18.651 20.4637 17.6149 20.9133L18.212 22.2893C19.6262 21.6756 20.739 20.5036 21.3169 19.0422L19.9219 18.4907ZM3.75 14.1429C3.75 12.6696 3.68173 12.3013 3.74703 11.5664L2.25291 11.4336C2.18073 12.246 2.25 12.857 2.25 14.1429H3.75ZM19.5 7.75C20.4665 7.75 21.25 8.5335 21.25 9.5H22.75C22.75 7.70507 21.2949 6.25 19.5 6.25V7.75ZM4.5 6.25C2.70507 6.25 1.25 7.70507 1.25 9.5H2.75C2.75 8.5335 3.5335 7.75 4.5 7.75V6.25ZM11.25 7V21H12.75V7H11.25ZM14 6.25H12V7.75H14V6.25ZM12.75 7V5H11.25V7H12.75ZM15.25 5C15.25 5.69036 14.6904 6.25 14 6.25V7.75C15.5188 7.75 16.75 6.51878 16.75 5H15.25ZM14 3.75C14.6904 3.75 15.25 4.30964 15.25 5H16.75C16.75 3.48122 15.5188 2.25 14 2.25V3.75ZM14 2.25C12.4812 2.25 11.25 3.48122 11.25 5H12.75C12.75 4.30964 13.3096 3.75 14 3.75V2.25ZM10 7.75H12V6.25H10V7.75ZM7.25 5C7.25 6.51878 8.48122 7.75 10 7.75V6.25C9.30964 6.25 8.75 5.69036 8.75 5H7.25ZM10 2.25C8.48122 2.25 7.25 3.48122 7.25 5H8.75C8.75 4.30964 9.30964 3.75 10 3.75V2.25ZM10 3.75C10.6904 3.75 11.25 4.30964 11.25 5H12.75C12.75 3.48122 11.5188 2.25 10 2.25V3.75ZM4.5 7.75H12V6.25H4.5V7.75ZM12 7.75H19.5V6.25H12V7.75ZM13.5 21.25H12V22.75H13.5V21.25ZM12 21.25H10.5V22.75H12V21.25ZM11.25 21V22H12.75V21H11.25ZM19.5 11.25H12V12.75H19.5V11.25ZM12 11.25H4.5V12.75H12V11.25ZM4.5 11.25C4.11829 11.25 3.76714 11.1287 3.48011 10.9223L2.60455 12.1403C3.13821 12.5239 3.79381 12.75 4.5 12.75V11.25ZM3.48011 10.9223C3.03646 10.6034 2.75 10.0852 2.75 9.5H1.25C1.25 10.5884 1.78572 11.5516 2.60455 12.1403L3.48011 10.9223ZM21.25 9.5C21.25 10.092 20.9568 10.6155 20.5043 10.9334L21.3665 12.1608C22.2017 11.5742 22.75 10.6012 22.75 9.5H21.25ZM20.5043 10.9334C20.2202 11.133 19.8749 11.25 19.5 11.25V12.75C20.1934 12.75 20.8381 12.532 21.3665 12.1608L20.5043 10.9334ZM21.75 14.1429C21.75 12.7979 21.7505 12.2674 21.6826 11.4825L20.1882 11.6118C20.2495 12.3207 20.25 12.7851 20.25 14.1429H21.75Z" fill="#3D158B"/>
</svg>
