<svg width="20" height="20" viewBox="0 0 20 20" fill="none" xmlns="http://www.w3.org/2000/svg">
<path d="M13.646 10.7096C14.6264 9.9383 15.342 8.88056 15.6933 7.68358C16.0445 6.4866 16.014 5.2099 15.6058 4.0311C15.1977 2.85231 14.4323 1.83003 13.4161 1.10649C12.3999 0.382955 11.1835 -0.00585938 9.93603 -0.00585938C8.68858 -0.00585938 7.47215 0.382955 6.45596 1.10649C5.43978 1.83003 4.67438 2.85231 4.26624 4.0311C3.85811 5.2099 3.82754 6.4866 4.17879 7.68358C4.53004 8.88056 5.24564 9.9383 6.22603 10.7096C4.54611 11.3827 3.08032 12.499 1.98492 13.9396C0.88953 15.3801 0.205595 17.0909 0.00603184 18.8896C-0.00841357 19.021 0.00314838 19.1538 0.0400573 19.2807C0.0769662 19.4075 0.138499 19.5259 0.221143 19.629C0.388051 19.8371 0.630815 19.9705 0.896032 19.9996C1.16125 20.0288 1.42719 19.9514 1.63536 19.7845C1.84352 19.6176 1.97686 19.3749 2.00603 19.1096C2.22562 17.1548 3.15772 15.3494 4.62425 14.0384C6.09078 12.7274 7.98893 12.0027 9.95603 12.0027C11.9231 12.0027 13.8213 12.7274 15.2878 14.0384C16.7543 15.3494 17.6864 17.1548 17.906 19.1096C17.9332 19.3554 18.0505 19.5823 18.2351 19.7467C18.4198 19.911 18.6588 20.0011 18.906 19.9996H19.016C19.2782 19.9695 19.5178 19.8369 19.6826 19.6309C19.8474 19.4248 19.9241 19.162 19.896 18.8996C19.6955 17.0958 19.0079 15.3806 17.9069 13.9378C16.8059 12.4951 15.3329 11.3791 13.646 10.7096ZM9.93603 9.9996C9.14491 9.9996 8.37155 9.765 7.71375 9.32551C7.05595 8.88599 6.54326 8.26128 6.24051 7.53037C5.93776 6.79947 5.85855 5.9952 6.01289 5.21928C6.16723 4.44335 6.54819 3.73062 7.1076 3.17121C7.66701 2.6118 8.37975 2.23084 9.15567 2.0765C9.93159 1.92215 10.7359 2.00137 11.4668 2.30412C12.1977 2.60687 12.8224 3.11956 13.2619 3.77736C13.7014 4.43515 13.936 5.20851 13.936 5.99964C13.936 7.0605 13.5146 8.07792 12.7645 8.82806C12.0143 9.5782 10.9969 9.9996 9.93603 9.9996Z" fill="#BFA3FF"/>
</svg>
