<svg width="20" height="22" viewBox="0 0 20 22" fill="none" xmlns="http://www.w3.org/2000/svg">
<g clip-path="url(#clip0_66_4559)">
<path d="M13.646 11.7096C14.6264 10.9383 15.342 9.88056 15.6933 8.68358C16.0445 7.4866 16.014 6.2099 15.6058 5.0311C15.1977 3.85231 14.4323 2.83003 13.4161 2.10649C12.3999 1.38295 11.1835 0.994141 9.93603 0.994141C8.68858 0.994141 7.47215 1.38295 6.45596 2.10649C5.43978 2.83003 4.67438 3.85231 4.26624 5.0311C3.85811 6.2099 3.82754 7.4866 4.17879 8.68358C4.53004 9.88056 5.24564 10.9383 6.22603 11.7096C4.54611 12.3827 3.08032 13.499 1.98492 14.9396C0.88953 16.3801 0.205595 18.0909 0.00603184 19.8896C-0.00841357 20.021 0.00314838 20.1538 0.0400573 20.2807C0.0769662 20.4075 0.138499 20.5259 0.221143 20.629C0.388051 20.8371 0.630815 20.9705 0.896032 20.9996C1.16125 21.0288 1.42719 20.9514 1.63536 20.7845C1.84352 20.6176 1.97686 20.3749 2.00603 20.1096C2.22562 18.1548 3.15772 16.3494 4.62425 15.0384C6.09078 13.7274 7.98893 13.0027 9.95603 13.0027C11.9231 13.0027 13.8213 13.7274 15.2878 15.0384C16.7543 16.3494 17.6864 18.1548 17.906 20.1096C17.9332 20.3554 18.0505 20.5823 18.2351 20.7467C18.4198 20.911 18.6588 21.0011 18.906 20.9996H19.016C19.2782 20.9695 19.5178 20.8369 19.6826 20.6309C19.8474 20.4248 19.9241 20.162 19.896 19.8996C19.6955 18.0958 19.0079 16.3806 17.9069 14.9378C16.8059 13.4951 15.3329 12.3791 13.646 11.7096ZM9.93603 10.9996C9.14491 10.9996 8.37155 10.765 7.71375 10.3255C7.05595 9.88599 6.54326 9.26128 6.24051 8.53037C5.93776 7.79947 5.85855 6.9952 6.01289 6.21928C6.16723 5.44335 6.54819 4.73062 7.1076 4.17121C7.66701 3.6118 8.37975 3.23084 9.15567 3.0765C9.93159 2.92215 10.7359 3.00137 11.4668 3.30412C12.1977 3.60687 12.8224 4.11956 13.2619 4.77736C13.7014 5.43515 13.936 6.20851 13.936 6.99964C13.936 8.0605 13.5146 9.07792 12.7645 9.82806C12.0143 10.5782 10.9969 10.9996 9.93603 10.9996Z" fill="#3D158B"/>
</g>
<defs>
<clipPath id="clip0_66_4559">
<rect width="20" height="21" fill="white" transform="translate(0 0.5)"/>
</clipPath>
</defs>
</svg>
