<svg width="20" height="20" viewBox="0 0 20 20" fill="none" xmlns="http://www.w3.org/2000/svg">
<path d="M19.0286 8.71032L10.6588 0.284363C10.5658 0.191616 10.4555 0.118238 10.3343 0.0684393C10.213 0.0186393 10.0832 -0.00660367 9.95219 -0.00584267H0.995234C0.731286 -0.00584267 0.478148 0.0995894 0.291509 0.287258C0.10487 0.474927 1.66343e-05 0.72946 1.66343e-05 0.99487V10.0012C-0.000740619 10.1329 0.0243638 10.2635 0.0738904 10.3854C0.123417 10.5073 0.196391 10.6182 0.28863 10.7117L8.66836 19.1277C9.22817 19.6899 9.98702 20.0057 10.7782 20.0057C11.5694 20.0057 12.3283 19.6899 12.8881 19.1277L19.0286 13.0034C19.5877 12.4405 19.9017 11.6774 19.9017 10.8819C19.9017 10.0863 19.5877 9.32326 19.0286 8.76036V8.71032ZM17.6253 11.5323L11.4749 17.7067C11.2884 17.8931 11.0362 17.9977 10.7732 17.9977C10.5103 17.9977 10.2581 17.8931 10.0716 17.7067L1.99045 9.5909V1.99557H9.54415L17.6253 10.1213C17.7175 10.2148 17.7905 10.3257 17.84 10.4476C17.8896 10.5696 17.9147 10.7001 17.9139 10.8318C17.9128 11.0943 17.8092 11.3459 17.6253 11.5323Z" fill="#BFA3FF"/>
</svg>
