<svg width="20" height="22" viewBox="0 0 20 22" fill="none" xmlns="http://www.w3.org/2000/svg">
<g clip-path="url(#clip0_66_4561)">
<path d="M19.0286 9.71032L10.6588 1.28436C10.5658 1.19162 10.4555 1.11824 10.3343 1.06844C10.213 1.01864 10.0832 0.993396 9.95219 0.994157H0.995234C0.731286 0.994157 0.478148 1.09959 0.291509 1.28726C0.10487 1.47493 1.66343e-05 1.72946 1.66343e-05 1.99487V11.0012C-0.000740619 11.1329 0.0243638 11.2635 0.0738904 11.3854C0.123417 11.5073 0.196391 11.6182 0.28863 11.7117L8.66836 20.1277C9.22817 20.6899 9.98702 21.0057 10.7782 21.0057C11.5694 21.0057 12.3283 20.6899 12.8881 20.1277L19.0286 14.0034C19.5877 13.4405 19.9017 12.6774 19.9017 11.8819C19.9017 11.0863 19.5877 10.3233 19.0286 9.76036V9.71032ZM17.6253 12.5323L11.4749 18.7067C11.2884 18.8931 11.0362 18.9977 10.7732 18.9977C10.5103 18.9977 10.2581 18.8931 10.0716 18.7067L1.99045 10.5909V2.99557H9.54415L17.6253 11.1213C17.7175 11.2148 17.7905 11.3257 17.84 11.4476C17.8896 11.5696 17.9147 11.7001 17.9139 11.8318C17.9128 12.0943 17.8092 12.3459 17.6253 12.5323Z" fill="#3D158B"/>
</g>
<defs>
<clipPath id="clip0_66_4561">
<rect width="20" height="21" fill="white" transform="translate(0 0.5)"/>
</clipPath>
</defs>
</svg>
